<?xml version="1.0" encoding="UTF-8"?>
<svg version="1.1" xmlns="http://www.w3.org/2000/svg" width="500" height="500">
<path d="M0 0 C6.61200859 8.11180566 7.89203583 16.775897 7 27 C5.28231988 36.02325631 1.33484807 43.46226154 -3.390625 51.19921875 C-5.16607373 53.75064299 -5.16607373 53.75064299 -5 56 C-4.11957031 56.43570313 -3.23914063 56.87140625 -2.33203125 57.3203125 C5.00220805 61.08104342 10.15120921 63.98070194 14.3125 71.3125 C16.31421181 79.13737343 14.71842316 84.97815627 11 92 C10.34 92 9.68 92 9 92 C8.01 93.98 8.01 93.98 7 96 C6.34 96 5.68 96 5 96 C5 96.66 5 97.32 5 98 C-8.24679792 105.41334562 -24.16170532 106.94213431 -39 109 C-38.37351562 109.58007812 -37.74703125 110.16015625 -37.1015625 110.7578125 C-36.28429687 111.53898437 -35.46703125 112.32015625 -34.625 113.125 C-33.81289063 113.89070313 -33.00078125 114.65640625 -32.1640625 115.4453125 C-28.15412143 120.17906965 -27.56698934 124.93785078 -28 131 C-29 134.4375 -29 134.4375 -30 137 C-30.66 137 -31.32 137 -32 137 C-32.268125 137.78375 -32.53625 138.5675 -32.8125 139.375 C-34 142 -34 142 -37 144 C-37.99 144 -38.98 144 -40 144 C-40 144.66 -40 145.32 -40 146 C-44.71692278 148.40169184 -49.13776258 148.38383564 -54.3125 148.375 C-55.19534668 148.37483887 -56.07819336 148.37467773 -56.98779297 148.37451172 C-64.10041632 148.25282989 -70.42027512 147.06347692 -77.2265625 145.0703125 C-86.33287145 142.48736358 -94.59557009 141.75512482 -104.0625 141.9375 C-106.30332394 141.97174009 -108.54421489 142.00192412 -110.78515625 142.02734375 C-112.25287476 142.05429321 -112.25287476 142.05429321 -113.75024414 142.08178711 C-116 142 -116 142 -117 141 C-117.4375 138.1875 -117.4375 138.1875 -117 135 C-110.90104091 129.77232078 -104.20950968 128.56435405 -96.375 128.5 C-95.10499146 128.48924438 -95.10499146 128.48924438 -93.80932617 128.47827148 C-84.53772167 128.64414532 -75.70150614 130.72131468 -66.73388672 132.953125 C-58.97322304 134.83396285 -52.5685222 135.99872846 -45 132.6875 C-42.91578639 131.16125349 -42.91578639 131.16125349 -42.0625 129.0625 C-41.98219751 126.41251782 -42.61278543 125.25845298 -44 123 C-46.06293132 121.19992233 -46.06293132 121.19992233 -48.4375 119.5625 C-53.18394806 115.9683247 -55.619803 113.61385437 -56.5 107.5625 C-55.99599952 103.97149657 -55.23179075 101.91638865 -52.71948242 99.26879883 C-45.31472774 93.80486157 -33.51462213 93.77309219 -24.72070312 92.62695312 C-17.3723035 91.5908071 -10.87774592 89.76384187 -4 87 C-3.01 86.67 -2.02 86.34 -1 86 C0.76126134 82.66287325 1.74675495 79.73377477 1 76 C-2.09694293 72.82752187 -4.4186007 71.24917113 -8.5 69.5 C-13.03271723 67.5574069 -16.75545291 65.611009 -18.95703125 60.9921875 C-20.50027727 55.81193478 -19.93038395 52.46752249 -17.48828125 47.734375 C-16.99714844 46.83203125 -16.50601563 45.9296875 -16 45 C-14.95657916 42.95845574 -13.92766074 40.91006875 -12.90185547 38.85961914 C-12.18526427 37.43077291 -11.46180509 36.00534694 -10.73095703 34.58374023 C-7.51204506 28.26641442 -6.26475286 23.07062668 -7 16 C-8.38214122 12.64838754 -8.38214122 12.64838754 -10 10 C-10 9.34 -10 8.68 -10 8 C-15.1504841 6.35184509 -19.57777056 6.51788833 -24.6875 8.25 C-29.42512244 10.78472018 -32.94542972 14.73290938 -36.52416992 18.67089844 C-40.90546968 23.36456796 -45.02666616 25.68701749 -51.5625 26.375 C-55.4975041 25.94572683 -57.6345274 25.08297792 -61 23 C-62.64983825 20.77593961 -63.98783753 18.76827578 -65.3125 16.375 C-65.99538121 15.19489989 -66.67894029 14.0151917 -67.36328125 12.8359375 C-67.90339844 11.90007812 -68.44351563 10.96421875 -69 10 C-70.96822886 8.03177114 -74.34808709 8.33751619 -77 8 C-77 8.66 -77 9.32 -77 10 C-77.66 10 -78.32 10 -79 10 C-79 10.66 -79 11.32 -79 12 C-79.66 12 -80.32 12 -81 12 C-83.96373621 26.42995036 -83.96373621 26.42995036 -85.4375 41.0625 C-85.92918254 49.90254239 -87.58582009 60.20095568 -92 68 C-92.66 68 -93.32 68 -94 68 C-94.309375 68.8971875 -94.309375 68.8971875 -94.625 69.8125 C-96.62109037 72.98809831 -98.48599992 73.72218179 -102 75 C-108.78736591 76.31075326 -113.15369621 74.25833815 -118.8359375 70.60546875 C-120.76673829 69.17305156 -122.44467794 67.8312663 -124 66 C-124 65.34 -124 64.68 -124 64 C-124.66 64 -125.32 64 -126 64 C-126 63.34 -126 62.68 -126 62 C-128.1685045 62.84617123 -128.1685045 62.84617123 -129.11328125 65.04296875 C-130.24795445 68.82687894 -130.25282445 72.40334723 -130.1875 76.3125 C-130.18685547 77.03373047 -130.18621094 77.75496094 -130.18554688 78.49804688 C-130.15647346 82.09991978 -129.96950727 85.61127426 -129.5 89.18359375 C-128.28881994 98.42830406 -127.72216977 110.44433955 -132 119 C-131.25234375 118.57847656 -130.5046875 118.15695312 -129.734375 117.72265625 C-128.74953125 117.17480469 -127.7646875 116.62695312 -126.75 116.0625 C-125.77546875 115.51722656 -124.8009375 114.97195313 -123.796875 114.41015625 C-121.46389591 113.23389165 -119.54649238 112.47898309 -117 112 C-117 111.34 -117 110.68 -117 110 C-115.02 109.34 -113.04 108.68 -111 108 C-111 107.34 -111 106.68 -111 106 C-109.33551663 104.81108331 -107.61440208 103.70134019 -105.875 102.625 C-99.98106332 98.82200752 -94.76691574 94.53868553 -89.54638672 89.86181641 C-85.19516675 86 -85.19516675 86 -83 86 C-83 85.34 -83 84.68 -83 84 C-82.38382812 83.57203125 -81.76765625 83.1440625 -81.1328125 82.703125 C-78.48849006 80.59154152 -77.93443541 78.93720903 -76.875 75.75 C-76.40707031 74.38101563 -76.40707031 74.38101563 -75.9296875 72.984375 C-75.62289062 71.99953125 -75.31609375 71.0146875 -75 70 C-74.65936523 68.92838623 -74.31873047 67.85677246 -73.96777344 66.75268555 C-73.00834983 63.03237772 -72.68812058 59.8045217 -72.5859375 55.97265625 C-72.54726563 54.68681641 -72.50859375 53.40097656 -72.46875 52.07617188 C-72.43730501 50.73828582 -72.40605741 49.40039511 -72.375 48.0625 C-72.33675658 46.69724244 -72.2977013 45.33200736 -72.2578125 43.96679688 C-72.16390063 40.6446646 -72.07822213 37.32253259 -72 34 C-69 35 -69 35 -67.6484375 37.58203125 C-67.22820312 38.64808594 -66.80796875 39.71414062 -66.375 40.8125 C-65.94960938 41.87082031 -65.52421875 42.92914063 -65.0859375 44.01953125 C-63.2834455 48.96665858 -62.74014965 53.50076513 -62.4375 58.75 C-62.39431641 59.44738281 -62.35113281 60.14476562 -62.30664062 60.86328125 C-62.20110404 62.57531922 -62.1001009 64.28763561 -62 66 C-61.01 65.67 -60.02 65.34 -59 65 C-59 64.34 -59 63.68 -59 63 C-58.34 63 -57.68 63 -57 63 C-57 62.34 -57 61.68 -57 61 C-56.34 61 -55.68 61 -55 61 C-54.74476563 60.41476562 -54.48953125 59.82953125 -54.2265625 59.2265625 C-52.87805007 56.77862593 -51.4111255 55.28133264 -49.375 53.375 C-45.3788105 49.51007219 -42.01341638 45.33647107 -38.6640625 40.90625 C-37.84035156 39.96265625 -37.84035156 39.96265625 -37 39 C-36.34 39 -35.68 39 -35 39 C-34.7421875 38.42765625 -34.484375 37.8553125 -34.21875 37.265625 C-32.88634058 34.78871005 -31.34943882 32.8658834 -29.5 30.75 C-28.8915625 30.04359375 -28.283125 29.3371875 -27.65625 28.609375 C-26 27 -26 27 -24 27 C-24.5416336 31.90438095 -26.03903128 35.39419113 -28.4375 39.6875 C-29.05496094 40.80511719 -29.67242187 41.92273438 -30.30859375 43.07421875 C-31.47331628 45.08894664 -32.70911991 47.06367987 -34 49 C-34.66 49 -35.32 49 -36 49 C-36.144375 49.61875 -36.28875 50.2375 -36.4375 50.875 C-37 53 -37 53 -38 55 C-38.66 55 -39.32 55 -40 55 C-40.268125 55.7425 -40.53625 56.485 -40.8125 57.25 C-41.95276751 59.89061949 -43.09380306 61.85552844 -45 64 C-45.66 64 -46.32 64 -47 64 C-47.433125 64.8971875 -47.433125 64.8971875 -47.875 65.8125 C-49 68 -49 68 -51 71 C-49.81664062 71.09796875 -48.63328125 71.1959375 -47.4140625 71.296875 C-38.72962123 72.09204588 -30.8715457 72.92578288 -23 77 C-23 78.32 -23 79.64 -23 81 C-23.648479 80.97905273 -24.29695801 80.95810547 -24.96508789 80.93652344 C-47.65960848 80.06881477 -47.65960848 80.06881477 -68 89 C-68.5775 89.5775 -69.155 90.155 -69.75 90.75 C-70.36875 91.36875 -70.36875 91.36875 -71 92 C-71.66 92 -72.32 92 -73 92 C-73 92.66 -73 93.32 -73 94 C-73.66 94 -74.32 94 -75 94 C-75 94.66 -75 95.32 -75 96 C-75.66 96 -76.32 96 -77 96 C-77 96.66 -77 97.32 -77 98 C-80.46153846 101 -80.46153846 101 -83 101 C-83 101.66 -83 102.32 -83 103 C-83.99 103.66 -84.98 104.32 -86 105 C-85.21496094 105.30292969 -84.42992187 105.60585938 -83.62109375 105.91796875 C-77.50485749 108.35695867 -71.95031935 110.59971614 -67 115 C-66.0625 117.8125 -66.0625 117.8125 -66 120 C-69.24528854 119.41562112 -72.16669673 118.58542046 -75.25 117.4375 C-83.89830923 114.83523929 -94.99537819 114.02283028 -103.3125 118 C-104.90442663 118.9524578 -106.46620024 119.95651328 -108 121 C-109.42699219 121.94166016 -109.42699219 121.94166016 -110.8828125 122.90234375 C-112.93070981 124.26673569 -114.97234871 125.64056516 -117.0078125 127.0234375 C-121.51954316 130.00377133 -126.1819043 132.55291455 -131 135 C-132.74796875 135.90105469 -132.74796875 135.90105469 -134.53125 136.8203125 C-148.29971297 143.71442351 -162.88252458 147.68884264 -178 143 C-186.18991747 140.10226384 -191.5422088 134.45068262 -195.3125 126.6875 C-199.06682799 117.00208304 -199.33077425 107.00033341 -199.44921875 96.7265625 C-199.47058631 95.35443201 -199.49255808 93.98231082 -199.51509094 92.61019897 C-199.56024346 89.73757694 -199.59905026 86.86496257 -199.63305664 83.9921875 C-199.67586315 80.40574244 -199.73293826 76.81970676 -199.79441643 73.23353958 C-200.03714043 58.82902476 -200.1055219 44.42698899 -199.76953125 30.0234375 C-199.75427902 28.85390533 -199.73902679 27.68437317 -199.72331238 26.47940063 C-199.40458941 16.13543035 -196.61019103 8.00181019 -190 0 C-189.34 0 -188.68 0 -188 0 C-188 -0.66 -188 -1.32 -188 -2 C-180.88108946 -6.55610275 -174.34219488 -6.99057495 -166 -6 C-161.86944626 -4.65866692 -158.60457169 -2.40304779 -155 0 C-155 0.66 -155 1.32 -155 2 C-154.34 2 -153.68 2 -153 2 C-151.72241211 3.43017578 -151.72241211 3.43017578 -150.27734375 5.4453125 C-149.47611084 6.55616211 -149.47611084 6.55616211 -148.65869141 7.68945312 C-147.80670166 8.89504883 -147.80670166 8.89504883 -146.9375 10.125 C-146.35403809 10.94162109 -145.77057617 11.75824219 -145.16943359 12.59960938 C-140.92283349 18.58573838 -136.90116247 24.68830534 -132.98046875 30.890625 C-128.31481472 38.21579385 -123.2409645 45.08850255 -117.69921875 51.7734375 C-116.15592547 53.79568387 -115.12667878 55.73671575 -114 58 C-112.13355094 59.18330183 -112.13355094 59.18330183 -110 60 C-108.66666667 60.66666667 -107.33333333 61.33333333 -106 62 C-99.69089803 56.83800748 -99.81109505 46.51013931 -99 39 C-98.88452083 36.37547333 -98.78052664 33.75041839 -98.6875 31.125 C-98.12618573 19.59700819 -95.54103588 7.95989329 -87.03125 -0.359375 C-81.12414484 -5.1304984 -75.32061184 -5.72210117 -68 -5 C-64.44182542 -3.99442892 -61.76840328 -2.46080291 -59 0 C-59 0.66 -59 1.32 -59 2 C-58.34 2 -57.68 2 -57 2 C-55.35 5.3 -53.7 8.6 -52 12 C-47.64504528 9.82252264 -45.35077312 7.39328146 -42.09765625 3.875 C-39.83420244 1.85180106 -37.86093196 0.9553025 -35 0 C-35 -0.66 -35 -1.32 -35 -2 C-23.40667856 -8.62915987 -10.29708084 -9.42203246 0 0 Z M-181.4140625 9.6640625 C-181.81367188 10.31117188 -182.21328125 10.95828125 -182.625 11.625 C-183.02976563 12.25664062 -183.43453125 12.88828125 -183.8515625 13.5390625 C-187.31414628 20.95888488 -187.278115 28.15129171 -187.1875 36.1875 C-187.17960449 37.43329834 -187.17170898 38.67909668 -187.16357422 39.96264648 C-187.13544349 43.72682627 -187.08770055 47.49058819 -187.03643799 51.2545166 C-186.99607654 54.29562025 -186.96063963 57.33676374 -186.92529297 60.37792969 C-186.85504601 66.25106329 -186.77137385 72.12389941 -186.67959595 77.99673462 C-186.64346214 80.35670216 -186.60987514 82.71671018 -186.57894897 85.07675171 C-187.5278507 106.97383992 -187.5278507 106.97383992 -179.6328125 126.4140625 C-174.87210838 131.03809569 -171.24803828 132.13864716 -164.6875 132.25 C-159.70485798 132.15074418 -156.23915745 131.85327905 -152 129 C-145.14880072 120.25736534 -142.67947147 112.78751574 -142.875 101.8515625 C-142.88257324 100.88020355 -142.89014648 99.9088446 -142.89794922 98.90805054 C-142.93049345 94.77182028 -142.98673072 90.63599289 -143.04101562 86.5 C-143.07734385 83.47137303 -143.10143265 80.44281145 -143.125 77.4140625 C-143.14159668 76.48985504 -143.15819336 75.56564758 -143.17529297 74.61343384 C-143.23171784 67.08922882 -142.28967669 60.59313969 -138.375 54 C-137.92898437 53.236875 -137.48296875 52.47375 -137.0234375 51.6875 C-136.68570313 51.130625 -136.34796875 50.57375 -136 50 C-137.44991667 47.66103978 -138.90925408 45.32900732 -140.375 43 C-140.99375 41.99839844 -140.99375 41.99839844 -141.625 40.9765625 C-142.69660955 39.28272806 -143.84330499 37.63691136 -145 36 C-145.66 36 -146.32 36 -147 36 C-147.268125 35.29875 -147.53625 34.5975 -147.8125 33.875 C-149.0681449 30.8350176 -150.50235123 27.9272226 -152 25 C-152.66 25 -153.32 25 -154 25 C-154.38091797 23.91912109 -154.38091797 23.91912109 -154.76953125 22.81640625 C-157.99630347 15.43068317 -163.5347708 9.09877438 -171 6 C-175.29630064 5.40051619 -178.55238027 6.2964475 -181.4140625 9.6640625 Z " fill="#E8EDE4" transform="translate(346,205)"/>
<path d="M0 0 C0.68707031 0.0103125 1.37414062 0.020625 2.08203125 0.03125 C12.9027076 0.5493671 22.36591813 7.18587246 31.4375 12.5625 C32.48188232 13.17609375 33.52626465 13.7896875 34.60229492 14.421875 C41.30240737 18.3751941 47.92714828 22.43385235 54.49560547 26.6015625 C58.95592855 29.42034528 63.51395282 31.97545329 68.17578125 34.44921875 C71.90447401 36.51442794 75.4428651 38.85246838 79.01953125 41.16796875 C81.61282321 42.78923997 84.23665716 44.25431733 86.9375 45.6875 C91.71887169 48.23939422 96.29600573 51.04452633 100.875 53.9375 C107.68062613 58.23692224 114.53300672 62.29843696 121.75 65.875 C121.75 66.535 121.75 67.195 121.75 67.875 C122.29140625 67.97683594 122.8328125 68.07867187 123.390625 68.18359375 C126.35596581 69.05257607 128.80524946 70.42972291 131.5 71.9375 C132.48484375 72.48535156 133.4696875 73.03320312 134.484375 73.59765625 C135.23203125 74.01917969 135.9796875 74.44070312 136.75 74.875 C136.75 75.535 136.75 76.195 136.75 76.875 C137.41 76.875 138.07 76.875 138.75 76.875 C139.10915493 83.22007042 139.10915493 83.22007042 137.6875 85.8125 C134.64919469 87.47866743 132.16671713 87.13098713 128.75 86.875 C125.75 85.44140625 125.75 85.44140625 122.75 83.4375 C121.61277593 82.6966921 120.47472144 81.95715779 119.3359375 81.21875 C118.45566895 80.63867188 118.45566895 80.63867188 117.55761719 80.046875 C114.54623402 78.09460066 111.45993469 76.27044895 108.375 74.4375 C107.10523529 73.67877599 105.83570538 72.9196589 104.56640625 72.16015625 C103.93492676 71.78262207 103.30344727 71.40508789 102.65283203 71.01611328 C100.7744573 69.88966685 98.90030899 68.75650806 97.02734375 67.62109375 C89.91200086 63.31502968 82.73331661 59.16046734 75.46484375 55.11816406 C70.68355188 52.44280537 66.04461801 49.60065731 61.47265625 46.578125 C59.17646161 45.14176795 56.86828317 43.81917264 54.49609375 42.515625 C49.0502083 39.51776572 43.78260658 36.25458429 38.5 32.98046875 C32.05941992 29.01101401 25.53774064 25.22311027 18.75 21.875 C18.75 21.215 18.75 20.555 18.75 19.875 C17.9146875 19.7203125 17.9146875 19.7203125 17.0625 19.5625 C14.75 18.875 14.75 18.875 12.375 17.4375 C5.53183324 13.36418645 -1.4749384 12.98091174 -9.25 13.875 C-12.53980458 14.93475165 -15.57306829 16.19846943 -18.69140625 17.68359375 C-20.90400387 18.7138873 -22.87008539 19.38781748 -25.25 19.875 C-25.25 20.535 -25.25 21.195 -25.25 21.875 C-25.90121826 22.22256348 -26.55243652 22.57012695 -27.22338867 22.92822266 C-34.46624701 26.83152876 -41.52791251 30.98488818 -48.5625 35.25 C-56.38401619 39.97057313 -64.227754 44.61896238 -72.18359375 49.109375 C-76.61672181 51.6619532 -80.94892115 54.37038449 -85.29296875 57.0703125 C-87.79144513 58.5951422 -90.30411236 60.04017919 -92.875 61.4375 C-96.22424216 63.25880322 -99.42386688 65.2417105 -102.625 67.3125 C-107.0305178 70.1520177 -111.51992716 72.67491118 -116.15234375 75.12109375 C-118.59241885 76.50267474 -120.913932 77.93489592 -123.25390625 79.47265625 C-124.3063855 80.15847778 -124.3063855 80.15847778 -125.38012695 80.8581543 C-126.76391275 81.76670696 -128.13927847 82.68825338 -129.50463867 83.62426758 C-133.87532002 86.48237883 -136.86638744 87.5521418 -142.25 86.875 C-144.63460953 84.79808202 -145.1459746 83.46943084 -145.6875 80.375 C-145.10404815 77.0409894 -143.75386784 76.1139535 -141.25 73.875 C-139.59853089 72.73749521 -137.90909759 71.65328454 -136.1875 70.625 C-134.90166016 69.84382813 -134.90166016 69.84382813 -133.58984375 69.046875 C-131.25 67.875 -131.25 67.875 -128.25 67.875 C-128.25 67.215 -128.25 66.555 -128.25 65.875 C-127.57195312 65.51148438 -126.89390625 65.14796875 -126.1953125 64.7734375 C-117.70528211 60.18741 -109.47231081 55.27661724 -101.3046875 50.14306641 C-95.77977021 46.67088015 -90.27296856 43.2512316 -84.52734375 40.15234375 C-81.50675154 38.45811793 -78.56803653 36.63669277 -75.625 34.8125 C-62.78095463 26.875 -62.78095463 26.875 -59.25 26.875 C-59.25 26.215 -59.25 25.555 -59.25 24.875 C-58.35474609 24.39933594 -58.35474609 24.39933594 -57.44140625 23.9140625 C-52.29116142 21.14379708 -47.22414991 18.28255554 -42.20629883 15.28051758 C-35.77326896 11.43798921 -29.29784786 7.72476068 -22.625 4.3125 C-21.98667236 3.97814941 -21.34834473 3.64379883 -20.69067383 3.29931641 C-13.89951981 -0.09938934 -7.4061843 -0.35332255 0 0 Z " fill="#E6EDE2" transform="translate(253.25,122.125)"/>
<path d="M0 0 C-0.5416336 4.90438095 -2.03903128 8.39419113 -4.4375 12.6875 C-5.05496094 13.80511719 -5.67242187 14.92273438 -6.30859375 16.07421875 C-7.47331628 18.08894664 -8.70911991 20.06367987 -10 22 C-10.66 22 -11.32 22 -12 22 C-12.144375 22.61875 -12.28875 23.2375 -12.4375 23.875 C-13 26 -13 26 -14 28 C-14.66 28 -15.32 28 -16 28 C-16.268125 28.7425 -16.53625 29.485 -16.8125 30.25 C-17.95276751 32.89061949 -19.09380306 34.85552844 -21 37 C-21.66 37 -22.32 37 -23 37 C-23.28875 37.598125 -23.5775 38.19625 -23.875 38.8125 C-25 41 -25 41 -27 44 C-25.81664062 44.09796875 -24.63328125 44.1959375 -23.4140625 44.296875 C-14.72962123 45.09204588 -6.8715457 45.92578288 1 50 C1 51.32 1 52.64 1 54 C0.351521 53.97905273 -0.29695801 53.95810547 -0.96508789 53.93652344 C-23.65960848 53.06881477 -23.65960848 53.06881477 -44 62 C-44.5775 62.5775 -45.155 63.155 -45.75 63.75 C-46.1625 64.1625 -46.575 64.575 -47 65 C-47.66 65 -48.32 65 -49 65 C-49 65.66 -49 66.32 -49 67 C-49.66 67 -50.32 67 -51 67 C-51 67.66 -51 68.32 -51 69 C-51.66 69 -52.32 69 -53 69 C-53 69.66 -53 70.32 -53 71 C-56.46153846 74 -56.46153846 74 -59 74 C-59 74.66 -59 75.32 -59 76 C-59.99 76.66 -60.98 77.32 -62 78 C-60.82244141 78.45439453 -60.82244141 78.45439453 -59.62109375 78.91796875 C-53.50485749 81.35695867 -47.95031935 83.59971614 -43 88 C-42.0625 90.8125 -42.0625 90.8125 -42 93 C-45.24528854 92.41562112 -48.16669673 91.58542046 -51.25 90.4375 C-59.89830923 87.83523929 -70.99537819 87.02283028 -79.3125 91 C-80.90540311 91.95082381 -82.46647506 92.95610944 -84 94 C-85.03253906 94.68578125 -86.06507813 95.3715625 -87.12890625 96.078125 C-89.21298638 97.47252759 -91.28346456 98.88760309 -93.3359375 100.328125 C-95.67701059 101.79730283 -97.30602028 102.565899 -100 103 C-100.66 101.68 -101.32 100.36 -102 99 C-100.515 98.505 -100.515 98.505 -99 98 C-99.33 97.01 -99.66 96.02 -100 95 C-99.505 94.01 -99.505 94.01 -99 93 C-101.97 93 -104.94 93 -108 93 C-105.23612808 90.84821844 -102.43466931 89.01629579 -99.375 87.3125 C-98.59898437 86.87550781 -97.82296875 86.43851562 -97.0234375 85.98828125 C-95 85 -95 85 -93 85 C-93 84.34 -93 83.68 -93 83 C-90.03 82.01 -90.03 82.01 -87 81 C-87 80.34 -87 79.68 -87 79 C-85.33551663 77.81108331 -83.61440208 76.70134019 -81.875 75.625 C-75.98106332 71.82200752 -70.76691574 67.53868553 -65.54638672 62.86181641 C-61.19516675 59 -61.19516675 59 -59 59 C-59 58.34 -59 57.68 -59 57 C-58.38382812 56.57203125 -57.76765625 56.1440625 -57.1328125 55.703125 C-54.48849006 53.59154152 -53.93443541 51.93720903 -52.875 48.75 C-52.56304687 47.83734375 -52.25109375 46.9246875 -51.9296875 45.984375 C-51.62289062 44.99953125 -51.31609375 44.0146875 -51 43 C-50.65936523 41.92838623 -50.31873047 40.85677246 -49.96777344 39.75268555 C-49.00834983 36.03237772 -48.68812058 32.8045217 -48.5859375 28.97265625 C-48.54726563 27.68681641 -48.50859375 26.40097656 -48.46875 25.07617188 C-48.43730501 23.73828582 -48.40605741 22.40039511 -48.375 21.0625 C-48.33675658 19.69724244 -48.2977013 18.33200736 -48.2578125 16.96679688 C-48.16390063 13.6446646 -48.07822213 10.32253259 -48 7 C-45 8 -45 8 -43.6484375 10.58203125 C-43.22820312 11.64808594 -42.80796875 12.71414062 -42.375 13.8125 C-41.94960938 14.87082031 -41.52421875 15.92914063 -41.0859375 17.01953125 C-39.2834455 21.96665858 -38.74014965 26.50076513 -38.4375 31.75 C-38.37272461 32.79607422 -38.37272461 32.79607422 -38.30664062 33.86328125 C-38.20110404 35.57531922 -38.1001009 37.28763561 -38 39 C-37.01 38.67 -36.02 38.34 -35 38 C-35 37.34 -35 36.68 -35 36 C-34.34 36 -33.68 36 -33 36 C-33 35.34 -33 34.68 -33 34 C-32.34 34 -31.68 34 -31 34 C-30.61714844 33.12214844 -30.61714844 33.12214844 -30.2265625 32.2265625 C-28.87805007 29.77862593 -27.4111255 28.28133264 -25.375 26.375 C-21.3788105 22.51007219 -18.01341638 18.33647107 -14.6640625 13.90625 C-14.11492187 13.2771875 -13.56578125 12.648125 -13 12 C-12.34 12 -11.68 12 -11 12 C-10.7421875 11.42765625 -10.484375 10.8553125 -10.21875 10.265625 C-8.88634058 7.78871005 -7.34943882 5.8658834 -5.5 3.75 C-4.8915625 3.04359375 -4.283125 2.3371875 -3.65625 1.609375 C-2 0 -2 0 0 0 Z " fill="#EAEFE6" transform="translate(322,232)"/>
<path d="M0 0 C0.33 0 0.66 0 1 0 C1.85053258 14.43542801 -2.00148606 25.10107515 -9.390625 37.19921875 C-11.16607373 39.75064299 -11.16607373 39.75064299 -11 42 C-10.11957031 42.43570313 -9.23914063 42.87140625 -8.33203125 43.3203125 C3.6215363 49.44966678 3.6215363 49.44966678 7 55 C7.8125 57.875 7.8125 57.875 8 60 C7.01 60.33 6.02 60.66 5 61 C5 60.34 5 59.68 5 59 C4.01 59 3.02 59 2 59 C2.33 57.02 2.66 55.04 3 53 C1.68 53 0.36 53 -1 53 C-1.33 52.34 -1.66 51.68 -2 51 C-1.814375 52.11375 -1.62875 53.2275 -1.4375 54.375 C-1 58 -1 58 -2 60 C-2.66 60 -3.32 60 -4 60 C-4.33 60.66 -4.66 61.32 -5 62 C-5.845625 61.236875 -6.69125 60.47375 -7.5625 59.6875 C-9.91527582 57.71116831 -11.58738717 56.74826264 -14.5 55.5 C-19.03271723 53.5574069 -22.75545291 51.611009 -24.95703125 46.9921875 C-26.50501668 41.79602587 -25.91457662 38.45924059 -23.484375 33.70703125 C-22.99453125 32.81371094 -22.5046875 31.92039063 -22 31 C-20.60306283 28.38612115 -19.23118275 25.76024681 -17.875 23.125 C-17.52066895 22.43720459 -17.16633789 21.74940918 -16.80126953 21.04077148 C-14.0439213 15.5031517 -12.52495481 10.19446674 -12 4 C-11.67 4 -11.34 4 -11 4 C-11 7.3 -11 10.6 -11 14 C-9.02 14.66 -7.04 15.32 -5 16 C-5 16.66 -5 17.32 -5 18 C-4.34 18 -3.68 18 -3 18 C-3.04125 17.319375 -3.0825 16.63875 -3.125 15.9375 C-2.97402714 12.38963778 -2.01341094 9.39790726 -1 6 C-0.63729412 4.00511766 -0.29359301 2.0062189 0 0 Z " fill="#ECF1E7" transform="translate(352,219)"/>
<path d="M0 0 C0.78375 0.185625 1.5675 0.37125 2.375 0.5625 C4.97089775 1.25962266 4.97089775 1.25962266 7 0 C9.625 1.4375 9.625 1.4375 12 3 C11.61652893 33.76694215 11.61652893 33.76694215 6 45 C5.34 45 4.68 45 4 45 C3.79375 45.598125 3.5875 46.19625 3.375 46.8125 C1.37890963 49.98809831 -0.48599992 50.72218179 -4 52 C-11.57425743 52.71287129 -11.57425743 52.71287129 -15 51 C-15.25 45.375 -15.25 45.375 -13 42 C-14.97536745 42.34786708 -14.97536745 42.34786708 -17 43 C-17.33 43.66 -17.66 44.32 -18 45 C-19.32 45 -20.64 45 -22 45 C-22.495 43.515 -22.495 43.515 -23 42 C-22.505 41.505 -22.505 41.505 -22 41 C-22.66 40.34 -23.32 39.68 -24 39 C-23.401875 39.165 -22.80375 39.33 -22.1875 39.5 C-19.88655664 40.1114124 -19.88655664 40.1114124 -17 40 C-13.66666667 40 -10.33333333 40 -7 40 C-1.0099827 27.38025481 -0.67725714 13.72336833 0 0 Z " fill="#E9EEE4" transform="translate(248,228)"/>
<path d="M0 0 C0.99 0.33 1.98 0.66 3 1 C3.86625 0.505 3.86625 0.505 4.75 0 C8.09465813 -1.48651472 10.50963998 -0.84027186 14 0 C16.46751239 3.70126859 16.30721156 5.62223532 16 10 C15 12.4375 15 12.4375 14 14 C13.34 14 12.68 14 12 14 C11.7525 14.61875 11.505 15.2375 11.25 15.875 C9.79371361 18.35068687 8.62187494 18.95125002 6 20 C6 20.66 6 21.32 6 22 C3.75390625 22.69140625 3.75390625 22.69140625 1 23 C-4.02026177 20.07385115 -8.42347798 15.15304404 -11 10 C-11.5625 6.375 -11.5625 6.375 -11 3 C-7.46508918 -1.15871861 -5.13232294 -1.45043909 0 0 Z " fill="#ECF0E8" transform="translate(179,300)"/>
<path d="M0 0 C-0.5416336 4.90438095 -2.03903128 8.39419113 -4.4375 12.6875 C-5.05496094 13.80511719 -5.67242187 14.92273438 -6.30859375 16.07421875 C-7.47331628 18.08894664 -8.70911991 20.06367987 -10 22 C-10.66 22 -11.32 22 -12 22 C-12.144375 22.61875 -12.28875 23.2375 -12.4375 23.875 C-13 26 -13 26 -14 28 C-14.66 28 -15.32 28 -16 28 C-16.2475 28.763125 -16.495 29.52625 -16.75 30.3125 C-18.1387103 33.29822715 -19.14829927 34.40640253 -22 36 C-23.32 36 -24.64 36 -26 36 C-25.67 36.99 -25.34 37.98 -25 39 C-26.175625 38.4740625 -26.175625 38.4740625 -27.375 37.9375 C-28.24125 37.628125 -29.1075 37.31875 -30 37 C-30.99 37.495 -30.99 37.495 -32 38 C-31.04698504 31.60118529 -28.09834222 28.77076089 -23.45703125 24.421875 C-20.15383751 21.16594476 -17.4157309 17.5699701 -14.62890625 13.87109375 C-14.09136719 13.25363281 -13.55382812 12.63617188 -13 12 C-12.34 12 -11.68 12 -11 12 C-10.7421875 11.42765625 -10.484375 10.8553125 -10.21875 10.265625 C-8.88634058 7.78871005 -7.34943882 5.8658834 -5.5 3.75 C-4.58734375 2.69039062 -4.58734375 2.69039062 -3.65625 1.609375 C-2 0 -2 0 0 0 Z " fill="#CCDBCB" transform="translate(322,232)"/>
<path d="M0 0 C0.97582031 0.01546875 1.95164062 0.0309375 2.95703125 0.046875 C5.88583046 0.18222387 8.77245509 0.44101337 11.6875 0.75 C16.34385953 1.23169236 20.39169704 0.97004201 25 0.1875 C24.73958333 2.20572917 24.47916667 4.22395833 24.21875 6.2421875 C23.9627515 8.19248344 23.9627515 8.19248344 24 10.1875 C23.34 10.1875 22.68 10.1875 22 10.1875 C21.67 11.5075 21.34 12.8275 21 14.1875 C12.92015958 14.63090588 6.8475484 14.7964268 0 10.1875 C-0.33 9.1975 -0.66 8.2075 -1 7.1875 C-1.99 7.8475 -2.98 8.5075 -4 9.1875 C-4.625 7.375 -4.625 7.375 -5 5.1875 C-4.34 4.1975 -3.68 3.2075 -3 2.1875 C-4.65 2.1875 -6.3 2.1875 -8 2.1875 C-4.71844326 -0.0002045 -3.79711411 -0.06070967 0 0 Z " fill="#F3F7EF" transform="translate(277,338.8125)"/>
<path d="M0 0 C1.42944945 2.35438733 2.08661261 3.48032433 1.625 6.25 C1.41875 6.8275 1.2125 7.405 1 8 C1.66 8.33 2.32 8.66 3 9 C2.67 9.66 2.34 10.32 2 11 C3.32 11.33 4.64 11.66 6 12 C3.49079923 13.68685766 0.97003378 15.3488326 -1.5625 17 C-2.26697266 17.47695312 -2.97144531 17.95390625 -3.69726562 18.4453125 C-8.26539192 21.39249075 -11.38946417 22.75798906 -17 22 C-19.38460953 19.92308202 -19.8959746 18.59443084 -20.4375 15.5 C-19.85404815 12.1659894 -18.50386784 11.2389535 -16 9 C-14.34853089 7.86249521 -12.65909759 6.77828454 -10.9375 5.75 C-10.08027344 5.22921875 -9.22304687 4.7084375 -8.33984375 4.171875 C-6 3 -6 3 -3 3 C-3 2.34 -3 1.68 -3 1 C-2.01 0.67 -1.02 0.34 0 0 Z " fill="#E8EFE5" transform="translate(128,187)"/>
<path d="M0 0 C0.41185547 0.86431641 0.41185547 0.86431641 0.83203125 1.74609375 C3.43722016 6.77349844 6.3050199 10.96971798 11.1875 13.9375 C16.10727166 15.3085839 20.9127483 15.73321827 26 16 C26 16.33 26 16.66 26 17 C25.38511719 17.06058594 24.77023438 17.12117188 24.13671875 17.18359375 C23.32847656 17.26738281 22.52023438 17.35117187 21.6875 17.4375 C20.88699219 17.51871094 20.08648437 17.59992188 19.26171875 17.68359375 C16.83912821 17.95265693 16.83912821 17.95265693 14 19 C13.67 21.31 13.34 23.62 13 26 C12.34 26 11.68 26 11 26 C11 25.01 11 24.02 11 23 C9.35 23.33 7.7 23.66 6 24 C6.99 24.99 7.98 25.98 9 27 C2.07262572 25.82087246 -2.35068963 22.1872471 -7 17 C-8.5625 13.5 -8.5625 13.5 -9 11 C-7.68 11.33 -6.36 11.66 -5 12 C-5 12.66 -5 13.32 -5 14 C-4.54625 13.505 -4.0925 13.01 -3.625 12.5 C-2 11 -2 11 0 11 C-0.08378906 10.37351562 -0.16757813 9.74703125 -0.25390625 9.1015625 C-0.35574219 8.28429687 -0.45757812 7.46703125 -0.5625 6.625 C-0.66691406 5.81289063 -0.77132812 5.00078125 -0.87890625 4.1640625 C-1 2 -1 2 0 0 Z " fill="#DFE6DC" transform="translate(161,321)"/>
<path d="M0 0 C-0.62390625 0.46019531 -1.2478125 0.92039063 -1.890625 1.39453125 C-3.76627631 2.8221103 -5.37782116 4.29671221 -7 6 C-7.33 5.01 -7.66 4.02 -8 3 C-10.01508358 2.26676204 -10.01508358 2.26676204 -12 2 C-12 2.99 -12 3.98 -12 5 C-13.98 5.99 -13.98 5.99 -16 7 C-16 7.99 -16 8.98 -16 10 C-16.99 10.33 -17.98 10.66 -19 11 C-19.33 11.99 -19.66 12.98 -20 14 C-20 13.34 -20 12.68 -20 12 C-20.66 12 -21.32 12 -22 12 C-22.67958603 14.39719432 -22.67958603 14.39719432 -23 17 C-22.34 17.66 -21.68 18.32 -21 19 C-21.33 19.66 -21.66 20.32 -22 21 C-21.34 21 -20.68 21 -20 21 C-18.375 22.5 -18.375 22.5 -17 24 C-16.67 22.68 -16.34 21.36 -16 20 C-15.34 20 -14.68 20 -14 20 C-14.20496094 21.20914063 -14.40992188 22.41828125 -14.62109375 23.6640625 C-16.24385997 33.44977381 -17.53075449 43.08112084 -18 53 C-18.33 53 -18.66 53 -19 53 C-19 45.74 -19 38.48 -19 31 C-21.475 30.01 -21.475 30.01 -24 29 C-24.66 29.66 -25.32 30.32 -26 31 C-26 30.34 -26 29.68 -26 29 C-26.99 29.33 -27.98 29.66 -29 30 C-28.57377905 19.79200815 -25.91301677 12.18264708 -18.84375 4.6640625 C-13.18526253 -0.44296221 -7.18826215 -0.39050921 0 0 Z " fill="#D3E0D1" transform="translate(278,200)"/>
<path d="M0 0 C0.33 0.66 0.66 1.32 1 2 C1.66 2 2.32 2 3 2 C5.71690116 10.15070347 3.22334224 18.059492 1 26 C0.34 26 -0.32 26 -1 26 C-1.33 25.34 -1.66 24.68 -2 24 C-5.02934491 23.34227572 -5.02934491 23.34227572 -8 23 C-8.14505175 19.56294295 -8.23398014 16.12666967 -8.3125 12.6875 C-8.3753418 11.22280273 -8.3753418 11.22280273 -8.43945312 9.72851562 C-8.48520684 7.06564944 -8.47334912 4.62158154 -8 2 C-4.95188476 -0.9153665 -4.02824881 -1.3427496 0 0 Z " fill="#F3F6EE" transform="translate(348,211)"/>
<path d="M0 0 C5.625 -0.25 5.625 -0.25 9 2 C9 2.66 9 3.32 9 4 C8.01 4.33 7.02 4.66 6 5 C5.87625 5.639375 5.7525 6.27875 5.625 6.9375 C5 9 5 9 2.8125 10.1875 C-0.1148728 11.03318548 -2.98376679 11.57913025 -6 12 C-6.33 12.99 -6.66 13.98 -7 15 C-7.66 15.66 -8.32 16.32 -9 17 C-9.33 17.99 -9.66 18.98 -10 20 C-10.66 20.99 -11.32 21.98 -12 23 C-12.99 22.67 -13.98 22.34 -15 22 C-15 21.34 -15 20.68 -15 20 C-15.66 20 -16.32 20 -17 20 C-17.77772405 17.66682784 -18.42415568 15.38564077 -19 13 C-18.34 13 -17.68 13 -17 13 C-17 12.34 -17 11.68 -17 11 C-15.35 10.34 -13.7 9.68 -12 9 C-12 8.01 -12 7.02 -12 6 C-11.67 5.34 -11.34 4.68 -11 4 C-9.68 4 -8.36 4 -7 4 C-7 3.01 -7 2.02 -7 1 C-4.5625 1.375 -4.5625 1.375 -2 2 C-1.67 2.66 -1.34 3.32 -1 4 C-0.67 2.68 -0.34 1.36 0 0 Z " fill="#F5F8F0" transform="translate(273,201)"/>
<path d="M0 0 C0 3 0 3 -2 6 C-2.45139459 8.0492094 -2.45139459 8.0492094 -2.625 10.1875 C-2.74875 11.445625 -2.8725 12.70375 -3 14 C-0.03 13.34 2.94 12.68 6 12 C1.58970287 16.41029713 -4.12981719 20.93068329 -10.6171875 21.046875 C-14.73053806 20.21071849 -17.17759066 19.16639048 -20 16 C-19.030625 15.38125 -18.06125 14.7625 -17.0625 14.125 C-13.97164638 12.34321154 -13.97164638 12.34321154 -13 10 C-14.32 10.33 -15.64 10.66 -17 11 C-15.56904349 8.13808698 -13.56109874 7.53945428 -10.75 6.0625 C-7.10102195 4.1344589 -3.52169832 2.15286303 0 0 Z " fill="#DFE5DB" transform="translate(188,151)"/>
<path d="M0 0 C0.66 0 1.32 0 2 0 C2 1.32 2 2.64 2 4 C2.66 4.33 3.32 4.66 4 5 C3.67 7.31 3.34 9.62 3 12 C2.34 12 1.68 12 1 12 C0.67 12.99 0.34 13.98 0 15 C-1.65 14.34 -3.3 13.68 -5 13 C-5.33 13.66 -5.66 14.32 -6 15 C-7.98 15 -9.96 15 -12 15 C-12.20086443 11.28400809 -12.1519437 10.22791555 -10 7 C-11.97536745 7.34786708 -11.97536745 7.34786708 -14 8 C-14.33 8.66 -14.66 9.32 -15 10 C-16.32 10 -17.64 10 -19 10 C-19.33 9.01 -19.66 8.02 -20 7 C-19.67 6.67 -19.34 6.34 -19 6 C-19.66 5.34 -20.32 4.68 -21 4 C-20.401875 4.165 -19.80375 4.33 -19.1875 4.5 C-16.88655664 5.1114124 -16.88655664 5.1114124 -14 5 C-10.66666667 5 -7.33333333 5 -4 5 C-3.34 4.01 -2.68 3.02 -2 2 C-1.34 2 -0.68 2 0 2 C0 1.34 0 0.68 0 0 Z " fill="#F6F8F1" transform="translate(245,263)"/>
<path d="M0 0 C1.485 0.99 1.485 0.99 3 2 C5.11280345 2.63292383 5.11280345 2.63292383 7 3 C6.34 4.98 5.68 6.96 5 9 C5.804375 8.979375 6.60875 8.95875 7.4375 8.9375 C10 9 10 9 11 10 C11.27331728 13.62145399 11.42655962 16.16820874 9.75 19.4375 C8 21 8 21 4 21 C3.34 21.66 2.68 22.32 2 23 C1.46530198 21.27507022 0.94780825 19.544802 0.4375 17.8125 C0.14746094 16.84957031 -0.14257812 15.88664062 -0.44140625 14.89453125 C-1.03163696 11.83606301 -0.75754751 9.98503819 0 7 C0 6.01 0 5.02 0 4 C0 2.68 0 1.36 0 0 Z " fill="#F6F8F0" transform="translate(349,269)"/>
<path d="M0 0 C2.9375 1.25 2.9375 1.25 6 3 C6.75 5.125 6.75 5.125 7 7 C7.66 7.33 8.32 7.66 9 8 C9.33 8.66 9.66 9.32 10 10 C9.55527344 11.08861328 9.55527344 11.08861328 9.1015625 12.19921875 C7.81096936 15.48062046 7.58787866 18.30000217 7.375 21.8125 C7.30023438 22.97394531 7.22546875 24.13539063 7.1484375 25.33203125 C7.09945312 26.21246094 7.05046875 27.09289062 7 28 C6.67 28 6.34 28 6 28 C5.80609271 25.68802845 5.62003633 23.3753971 5.4375 21.0625 C5.33308594 19.77472656 5.22867188 18.48695313 5.12109375 17.16015625 C5.08113281 16.11730469 5.04117188 15.07445312 5 14 C5.33 13.67 5.66 13.34 6 13 C5.67 12.34 5.34 11.68 5 11 C5.33 10.34 5.66 9.68 6 9 C5.236875 9.350625 4.47375 9.70125 3.6875 10.0625 C1 11 1 11 -2 10 C-4.14560605 14.96171399 -4.10924072 19.21934259 -3.875 24.51171875 C-4 27 -4 27 -6 30 C-6.46698113 8.62264151 -6.46698113 8.62264151 0 0 Z " fill="#DBE5D9" transform="translate(208,258)"/>
<path d="M0 0 C6.90643636 1.65386946 13.85297112 3.86793341 19 9 C19.9375 11.8125 19.9375 11.8125 20 14 C16.77669987 13.41394543 13.82741604 12.60698419 10.75 11.5 C3.37959184 9.20374822 -4.3413546 9.25765744 -12 9 C-12 8.67 -12 8.34 -12 8 C-7.38 7.67 -2.76 7.34 2 7 C1.34 4.69 0.68 2.38 0 0 Z " fill="#C8D4C7" transform="translate(260,311)"/>
<path d="M0 0 C0 0.66 0 1.32 0 2 C-0.99 2.495 -0.99 2.495 -2 3 C-3.13350534 5.01669827 -3.13350534 5.01669827 -4 7 C-4.66 7 -5.32 7 -6 7 C-6 7.99 -6 8.98 -6 10 C-5.278125 10.12375 -4.55625 10.2475 -3.8125 10.375 C-1.04278106 10.9904931 1.3970354 11.88444374 4 13 C3.0919838 14.13199353 2.17316174 15.25532363 1.25 16.375 C0.73953125 17.00148437 0.2290625 17.62796875 -0.296875 18.2734375 C-2.08199481 20.08312318 -3.67949644 21.00117455 -6 22 C-6 21.01 -6 20.02 -6 19 C-6.33 18.01 -6.66 17.02 -7 16 C-6.34 15.34 -5.68 14.68 -5 14 C-6.70112992 13.19530151 -6.70112992 13.19530151 -9 13 C-13.28611247 14.59514784 -13.28611247 14.59514784 -16 18 C-16.66 17.67 -17.32 17.34 -18 17 C-17 14 -17 14 -15 12 C-14.01 12 -13.02 12 -12 12 C-11.7525 11.42765625 -11.505 10.8553125 -11.25 10.265625 C-9.80683801 7.64989389 -8.11783778 5.85226544 -6 3.75 C-5.29875 3.04359375 -4.5975 2.3371875 -3.875 1.609375 C-2 0 -2 0 0 0 Z " fill="#F2F7ED" transform="translate(308,207)"/>
<path d="M0 0 C3.60389664 -0.11601004 7.20731467 -0.18718408 10.8125 -0.25 C11.83666016 -0.28351563 12.86082031 -0.31703125 13.91601562 -0.3515625 C14.89892578 -0.36445313 15.88183594 -0.37734375 16.89453125 -0.390625 C17.80050049 -0.41157227 18.70646973 -0.43251953 19.63989258 -0.45410156 C22 0 22 0 23.6940918 2.02441406 C24.34051636 3.0023291 24.34051636 3.0023291 25 4 C25.66 4 26.32 4 27 4 C27 4.66 27 5.32 27 6 C24.39576408 6.02697137 21.79180756 6.04682489 19.1875 6.0625 C18.44951172 6.07087891 17.71152344 6.07925781 16.95117188 6.08789062 C13.70077932 6.10259828 11.10595105 6.03531702 8 5 C7.01 5 6.02 5 5 5 C2.3125 2.5 2.3125 2.5 0 0 Z " fill="#F0F7EE" transform="translate(291,278)"/>
<path d="M0 0 C-0.5416336 4.90438095 -2.03903128 8.39419113 -4.4375 12.6875 C-5.05496094 13.80511719 -5.67242187 14.92273438 -6.30859375 16.07421875 C-7.47331628 18.08894664 -8.70911991 20.06367987 -10 22 C-10.66 21.67 -11.32 21.34 -12 21 C-11.625 18.0625 -11.625 18.0625 -11 15 C-10.34 14.67 -9.68 14.34 -9 14 C-9.99 13.67 -10.98 13.34 -12 13 C-12.33 14.32 -12.66 15.64 -13 17 C-13.99 16.67 -14.98 16.34 -16 16 C-14.625 14 -14.625 14 -13 12 C-12.34 12 -11.68 12 -11 12 C-10.7421875 11.42765625 -10.484375 10.8553125 -10.21875 10.265625 C-8.88634058 7.78871005 -7.34943882 5.8658834 -5.5 3.75 C-4.8915625 3.04359375 -4.283125 2.3371875 -3.65625 1.609375 C-2 0 -2 0 0 0 Z " fill="#C4D4C6" transform="translate(322,232)"/>
<path d="M0 0 C0 1.32 0 2.64 0 4 C0.66 4 1.32 4 2 4 C3 7 3 7 3 9 C3.99 9.66 4.98 10.32 6 11 C6 11.66 6 12.32 6 13 C8.97 13.495 8.97 13.495 12 14 C12 14.33 12 14.66 12 15 C6.24193011 15.42435585 3.07011699 14.41029391 -1.8125 11.375 C-2.93269531 10.70210937 -4.05289062 10.02921875 -5.20703125 9.3359375 C-8.35707303 6.70135711 -9.1113721 4.95071512 -10 1 C-6.52674819 -0.1577506 -3.63932552 -0.06866652 0 0 Z " fill="#E3E8DE" transform="translate(377,194)"/>
<path d="M0 0 C1.84765625 0.33984375 1.84765625 0.33984375 4.0625 0.9375 C5.16271484 1.22947266 5.16271484 1.22947266 6.28515625 1.52734375 C7.13400391 1.76130859 7.13400391 1.76130859 8 2 C8.87840996 5.09720845 8.99435406 6.90645403 8 10 C8.66 10.33 9.32 10.66 10 11 C9.01 12.485 9.01 12.485 8 14 C4.7 13.34 1.4 12.68 -2 12 C-2 10.35 -2 8.7 -2 7 C-1.01 6.34 -0.02 5.68 1 5 C1 4.34 1 3.68 1 3 C0.34 2.34 -0.32 1.68 -1 1 C-0.67 0.67 -0.34 0.34 0 0 Z " fill="#EFF3EA" transform="translate(274,132)"/>
<path d="M0 0 C2.97 0.495 2.97 0.495 6 1 C6 1.99 6 2.98 6 4 C5.01 4.66 4.02 5.32 3 6 C3.33 6.99 3.66 7.98 4 9 C3.21625 9.0825 2.4325 9.165 1.625 9.25 C-1.14749104 9.72806339 -1.14749104 9.72806339 -2.3125 12.0625 C-2.539375 12.701875 -2.76625 13.34125 -3 14 C-3.33 12.68 -3.66 11.36 -4 10 C-4.99 10 -5.98 10 -7 10 C-8 7 -8 7 -6.875 4.3125 C-5 2 -5 2 -2.3125 1.6875 C-1.549375 1.790625 -0.78625 1.89375 0 2 C0 1.34 0 0.68 0 0 Z " fill="#F7F8F0" transform="translate(268,289)"/>
<path d="M0 0 C0.99 0.66 1.98 1.32 3 2 C2.01 2.66 1.02 3.32 0 4 C0.33 4.66 0.66 5.32 1 6 C1.33 6.66 1.66 7.32 2 8 C1.34 8 0.68 8 0 8 C0 8.66 0 9.32 0 10 C-1.216875 9.814375 -2.43375 9.62875 -3.6875 9.4375 C-7.02977939 9.01006818 -9.71968417 9.07741117 -13 10 C-12.67 8.68 -12.34 7.36 -12 6 C-11.34 6 -10.68 6 -10 6 C-9.773125 5.38125 -9.54625 4.7625 -9.3125 4.125 C-7.08536213 0.51915773 -4.06865477 0 0 0 Z " fill="#F7F7F0" transform="translate(302,219)"/>
<path d="M0 0 C5.80205656 5.64524422 5.80205656 5.64524422 8 9 C8 9.66 8 10.32 8 11 C7.401875 10.690625 6.80375 10.38125 6.1875 10.0625 C3.91043228 8.89790296 3.91043228 8.89790296 1 8 C1.66 9.32 2.32 10.64 3 12 C2.01 12.495 2.01 12.495 1 13 C1 13.99 1 14.98 1 16 C0.68911632 17.67099977 0.35919668 19.33871537 0 21 C-0.66 20.67 -1.32 20.34 -2 20 C-2 19.01 -2 18.02 -2 17 C-2.66 17 -3.32 17 -4 17 C-4.99 15.02 -5.98 13.04 -7 11 C-5.35 11 -3.7 11 -2 11 C0.32590854 7.36576791 0.16265833 4.22911669 0 0 Z M1 17 C3 18 3 18 3 18 Z " fill="#D6E0D4" transform="translate(196,213)"/>
<path d="M0 0 C0.33 0 0.66 0 1 0 C1.33 4.95 1.66 9.9 2 15 C2.99 14.67 3.98 14.34 5 14 C5 13.34 5 12.68 5 12 C5.66 12 6.32 12 7 12 C7 11.34 7 10.68 7 10 C7.66 10 8.32 10 9 10 C9 10.99 9 11.98 9 13 C9.66 12.67 10.32 12.34 11 12 C11 12.66 11 13.32 11 14 C11.99 14 12.98 14 14 14 C14 13.34 14 12.68 14 12 C15.65 11.67 17.3 11.34 19 11 C19 11.66 19 12.32 19 13 C18.34 13 17.68 13 17 13 C16.731875 13.598125 16.46375 14.19625 16.1875 14.8125 C15.01506533 16.97224808 13.80630718 18.35790256 12 20 C10.68 19.01 9.36 18.02 8 17 C8 17.99 8 18.98 8 20 C7.34 19.67 6.68 19.34 6 19 C6 18.01 6 17.02 6 16 C4.02 16.33 2.04 16.66 0 17 C-0.77313045 11.0885256 -1.14819277 5.8685408 0 0 Z " fill="#D7DDD5" transform="translate(282,256)"/>
<path d="M0 0 C0.33 0 0.66 0 1 0 C1.45164525 7.11341265 0.32797915 11.71546794 -3 18 C-3.66 18 -4.32 18 -5 18 C-5.66 19.32 -6.32 20.64 -7 22 C-7.66 21.67 -8.32 21.34 -9 21 C-8.67 20.34 -8.34 19.68 -8 19 C-8.66 19 -9.32 19 -10 19 C-10 18.01 -10 17.02 -10 16 C-10.66 15.67 -11.32 15.34 -12 15 C-10.68 15 -9.36 15 -8 15 C-7.67 13.35 -7.34 11.7 -7 10 C-5.68 10.33 -4.36 10.66 -3 11 C-0.87953208 7.46588679 -0.46800711 4.05606165 0 0 Z " fill="#E5ECE2" transform="translate(360,279)"/>
<path d="M0 0 C0.66 0.33 1.32 0.66 2 1 C1.525625 1.7425 1.05125 2.485 0.5625 3.25 C-0.77869327 5.61050015 -1.512312 7.36648477 -2 10 C-1.319375 8.948125 -1.319375 8.948125 -0.625 7.875 C2 6 2 6 4.4921875 6.1796875 C7.0252374 6.70351935 9.5110415 7.29701172 12 8 C9.01360227 11.12860714 6.95254307 12.89794181 2.5 13.375 C-1 13 -1 13 -2.9375 11.3125 C-4.21304072 8.53632314 -4.52826174 7.0186385 -4 4 C-2 1.6875 -2 1.6875 0 0 Z " fill="#C9D7CC" transform="translate(112,196)"/>
<path d="M0 0 C2.4294516 3.6441774 2.16179575 5.71241272 2 10 C-4.75 12 -4.75 12 -7 12 C-7.99 12.495 -7.99 12.495 -9 13 C-9 10.36 -9 7.72 -9 5 C-6.35261084 3.5393715 -5.10551666 3 -2 3 C-1.34 2.67 -0.68 2.34 0 2 C0 1.34 0 0.68 0 0 Z " fill="#F7F9F1" transform="translate(211,314)"/>
<path d="M0 0 C0.66 0.33 1.32 0.66 2 1 C1.67 1.99 1.34 2.98 1 4 C1.99 4 2.98 4 4 4 C5.32 4 6.64 4 8 4 C8.33 4.99 8.66 5.98 9 7 C7.6875 9.1875 7.6875 9.1875 6 11 C5.34 11 4.68 11 4 11 C4 11.66 4 12.32 4 13 C3.01 13.33 2.02 13.66 1 14 C-2 10.25 -2 10.25 -2 8 C-1.01 8 -0.02 8 1 8 C0.34 7.34 -0.32 6.68 -1 6 C-1.99 6 -2.98 6 -4 6 C-4.33 4.68 -4.66 3.36 -5 2 C-2.625 0.9375 -2.625 0.9375 0 0 Z " fill="#F5F8EF" transform="translate(319,157)"/>
<path d="M0 0 C1.98 0.99 3.96 1.98 6 3 C6 3.66 6 4.32 6 5 C6.66 5 7.32 5 8 5 C8.125 8.375 8.125 8.375 8 12 C6 14 6 14 2.375 14.125 C1.26125 14.08375 0.1475 14.0425 -1 14 C-1.33 13.01 -1.66 12.02 -2 11 C-0.0625 8.3125 -0.0625 8.3125 2 6 C2.66 6.33 3.32 6.66 4 7 C3.34 6.01 2.68 5.02 2 4 C1.31822584 2.67432801 0.64808564 1.34246312 0 0 Z " fill="#F2F7EE" transform="translate(384,194)"/>
<path d="M0 0 C6.33333333 0.48717949 6.33333333 0.48717949 9.4375 2.875 C11 5 11 5 11 8 C8.03312999 9.64826111 5.34373475 10.44271087 2 11 C2 9 2 7 2 5 C1.01 5.33 0.02 5.66 -1 6 C-0.67 4.02 -0.34 2.04 0 0 Z " fill="#F5F8EF" transform="translate(377,193)"/>
<path d="M0 0 C1.7074998 1.28062485 3.37373596 2.61767557 5 4 C5 4.66 5 5.32 5 6 C5.5775 6.28875 6.155 6.5775 6.75 6.875 C8.83333333 7.91666667 10.91666667 8.95833333 13 10 C13.99 9.34 14.98 8.68 16 8 C15.34 9.32 14.68 10.64 14 12 C9.66666667 12 5.33333333 12 1 12 C1 11.01 1 10.02 1 9 C0.34 9 -0.32 9 -1 9 C-0.67 8.34 -0.34 7.68 0 7 C0.66 7.33 1.32 7.66 2 8 C1.484375 7.05125 0.96875 6.1025 0.4375 5.125 C-0.036875 4.09375 -0.51125 3.0625 -1 2 C-0.67 1.34 -0.34 0.68 0 0 Z " fill="#DCE4DA" transform="translate(227,257)"/>
<path d="M0 0 C3.79133356 0.54161908 5.66109564 1.99283725 8 5 C8.25 7.75 8.25 7.75 8 10 C6.68 10 5.36 10 4 10 C3.34 11.65 2.68 13.3 2 15 C1.01 14.67 0.02 14.34 -1 14 C-1 11 -1 8 -1 5 C-0.01 4.67 0.98 4.34 2 4 C1.34 3.67 0.68 3.34 0 3 C0 2.01 0 1.02 0 0 Z " fill="#F7F9F1" transform="translate(197,221)"/>
<path d="M0 0 C0.33 0 0.66 0 1 0 C1.33 10.23 1.66 20.46 2 31 C2.66 31.33 3.32 31.66 4 32 C4.09688221 37.44693314 4.12862175 42.63904667 3 48 C2.67 48 2.34 48 2 48 C-0.50414139 37.98766918 -0.22889401 28.04802017 -0.125 17.8125 C-0.11494761 16.08008331 -0.10582576 14.34766096 -0.09765625 12.61523438 C-0.07582749 8.41001414 -0.04142299 4.205071 0 0 Z " fill="#AFC3B2" transform="translate(147,279)"/>
<path d="M0 0 C0.66 0.33 1.32 0.66 2 1 C1.42655063 3.86724686 1.1385485 4.8614515 -1 7 C-0.505 7.78375 -0.01 8.5675 0.5 9.375 C2 12 2 12 2 14 C-1.55780196 13.39009109 -4.6828589 12.4216319 -8 11 C-8 10.01 -8 9.02 -8 8 C-7.34 7.67 -6.68 7.34 -6 7 C-4.86649466 4.98330173 -4.86649466 4.98330173 -4 3 C-3.34 3 -2.68 3 -2 3 C-2 2.34 -2 1.68 -2 1 C-1.34 0.67 -0.68 0.34 0 0 Z " fill="#F3F8EF" transform="translate(310,206)"/>
<path d="M0 0 C2.97 0.495 2.97 0.495 6 1 C6.33 2.65 6.66 4.3 7 6 C5.73760288 6.86658615 4.46472499 7.71792059 3.1875 8.5625 C2.12595703 9.27599609 2.12595703 9.27599609 1.04296875 10.00390625 C-1 11 -1 11 -4 10 C-2.99806563 6.20696275 -2.18975773 3.28463659 0 0 Z " fill="#E9F1E5" transform="translate(355,179)"/>
<path d="M0 0 C3.14737182 0.69941596 6.02588876 1.76078698 9 3 C8.0919838 4.13199353 7.17316174 5.25532363 6.25 6.375 C5.73953125 7.00148437 5.2290625 7.62796875 4.703125 8.2734375 C2.91800519 10.08312318 1.32050356 11.00117455 -1 12 C-1 11.01 -1 10.02 -1 9 C-1.33 8.01 -1.66 7.02 -2 6 C-1.34 5.34 -0.68 4.68 0 4 C0 3.67 0 3.34 0 3 C0 2.01 0 1.02 0 0 Z " fill="#D3DCCE" transform="translate(303,217)"/>
<path d="M0 0 C1.98 0.495 1.98 0.495 4 1 C3.67 2.32 3.34 3.64 3 5 C4.32 5 5.64 5 7 5 C7.66 3.68 8.32 2.36 9 1 C9.99 1.33 10.98 1.66 12 2 C11.49396008 4.16874252 11.00016187 5.99967627 10 8 C10.66 8.33 11.32 8.66 12 9 C10.265625 9.66796875 10.265625 9.66796875 8 10 C5.859375 8.92578125 5.859375 8.92578125 3.75 7.3125 C3.04359375 6.79300781 2.3371875 6.27351563 1.609375 5.73828125 C0 4 0 4 0 0 Z " fill="#E4E9E1" transform="translate(223,268)"/>
<path d="M0 0 C-2.1385485 2.1385485 -3.13275314 2.42655063 -6 3 C-5.938125 4.093125 -5.87625 5.18625 -5.8125 6.3125 C-6 10 -6 10 -7.5 11.9375 C-7.995 12.288125 -8.49 12.63875 -9 13 C-11.48836965 9.26744552 -11.54226552 7.41559065 -11 3 C-7.47587691 -1.14602716 -5.13338208 -1.43257174 0 0 Z " fill="#D7E3D6" transform="translate(179,300)"/>
<path d="M0 0 C0.33 0 0.66 0 1 0 C2.81344335 8.07953776 3.23658921 15.73252149 3 24 C3.66 24.33 4.32 24.66 5 25 C3.02 25.66 1.04 26.32 -1 27 C-0.67 18.09 -0.34 9.18 0 0 Z " fill="#B1C4B2" transform="translate(203,292)"/>
<path d="M0 0 C0.33 1.65 0.66 3.3 1 5 C-0.65 5.33 -2.3 5.66 -4 6 C-3.67 6.99 -3.34 7.98 -3 9 C-3.78375 8.649375 -4.5675 8.29875 -5.375 7.9375 C-6.24125 7.628125 -7.1075 7.31875 -8 7 C-8.99 7.495 -8.99 7.495 -10 8 C-9.67372714 4.98197607 -9.38918764 3.40308719 -7.25 1.1875 C-4.62847443 -0.19608294 -2.92325122 -0.24360427 0 0 Z " fill="#F7F9F3" transform="translate(300,262)"/>
<path d="M0 0 C4.3890815 0.51035831 7.33708062 1.52214277 11 4 C10.67 4.99 10.34 5.98 10 7 C-1.385 6.505 -1.385 6.505 -13 6 C-13 5.67 -13 5.34 -13 5 C-7.06 5 -1.12 5 5 5 C5 4.34 5 3.68 5 3 C4.01 3.33 3.02 3.66 2 4 C1.34 2.68 0.68 1.36 0 0 Z " fill="#9BB4A1" transform="translate(313,279)"/>
<path d="M0 0 C0.33 0 0.66 0 1 0 C1.61681383 10.46870143 1.02273767 21.60893521 -6 30 C-6 28.35 -6 26.7 -6 25 C-5.34 25 -4.68 25 -4 25 C-4.33 23.68 -4.66 22.36 -5 21 C-4.34 21 -3.68 21 -3 21 C-3.33 20.01 -3.66 19.02 -4 18 C-3.4765625 15.29296875 -3.4765625 15.29296875 -2.625 12.1875 C-1.52593583 8.13534284 -0.63307219 4.15220875 0 0 Z " fill="#BACDBC" transform="translate(352,219)"/>
<path d="M0 0 C0.66 0.33 1.32 0.66 2 1 C2.40197001 3.32249342 2.72686657 5.65885633 3 8 C3.185625 8.9075 3.37125 9.815 3.5625 10.75 C4 13 4 13 4 16 C3.01 16 2.02 16 1 16 C0.67 16.66 0.34 17.32 0 18 C-0.19384179 15.18780295 -0.38036603 12.37545804 -0.5625 9.5625 C-0.61857422 8.76005859 -0.67464844 7.95761719 -0.73242188 7.13085938 C-0.8616295 5.08937889 -0.9351273 3.04453631 -1 1 C-0.67 0.67 -0.34 0.34 0 0 Z " fill="#F6FBF1" transform="translate(276,243)"/>
<path d="M0 0 C0.89203125 0.00902344 1.7840625 0.01804688 2.703125 0.02734375 C3.37859375 0.03894531 4.0540625 0.05054688 4.75 0.0625 C4.12609375 0.52269531 3.5021875 0.98289063 2.859375 1.45703125 C0.98372369 2.8846103 -0.62782116 4.35921221 -2.25 6.0625 C-2.58 5.0725 -2.91 4.0825 -3.25 3.0625 C-5.26508358 2.32926204 -5.26508358 2.32926204 -7.25 2.0625 C-7.25 3.0525 -7.25 4.0425 -7.25 5.0625 C-7.889375 5.165625 -8.52875 5.26875 -9.1875 5.375 C-9.868125 5.601875 -10.54875 5.82875 -11.25 6.0625 C-11.58 7.0525 -11.91 8.0425 -12.25 9.0625 C-13.57 8.4025 -14.89 7.7425 -16.25 7.0625 C-15.17456217 6.07466806 -14.08926783 5.09756057 -13 4.125 C-12.39671875 3.57972656 -11.7934375 3.03445312 -11.171875 2.47265625 C-7.63354865 -0.12355475 -4.28451059 -0.05637514 0 0 Z " fill="#BCCFBD" transform="translate(273.25,199.9375)"/>
<path d="M0 0 C1.8871875 0.061875 1.8871875 0.061875 3.8125 0.125 C3.8125 1.775 3.8125 3.425 3.8125 5.125 C1.5025 6.445 -0.8075 7.765 -3.1875 9.125 C-3.8125 7.3125 -3.8125 7.3125 -4.1875 5.125 C-3.5275 4.135 -2.8675 3.145 -2.1875 2.125 C-3.8375 2.125 -5.4875 2.125 -7.1875 2.125 C-4.09861478 0.06574319 -3.47814073 -0.1140374 0 0 Z " fill="#F6F9F2" transform="translate(276.1875,338.875)"/>
<path d="M0 0 C0 0.66 0 1.32 0 2 C-0.99 2 -1.98 2 -3 2 C-3 2.99 -3 3.98 -3 5 C-2.34 5.33 -1.68 5.66 -1 6 C-2.625 7.625 -2.625 7.625 -5 9 C-8.25 8.1875 -8.25 8.1875 -11 7 C-11.33 7.99 -11.66 8.98 -12 10 C-12.99 9.34 -13.98 8.68 -15 8 C-14.31292969 7.59007812 -13.62585938 7.18015625 -12.91796875 6.7578125 C-12.01691406 6.21898437 -11.11585938 5.68015625 -10.1875 5.125 C-9.29417969 4.59132812 -8.40085938 4.05765625 -7.48046875 3.5078125 C-1.70984456 0 -1.70984456 0 0 0 Z " fill="#CFDFD2" transform="translate(151,174)"/>
<path d="M0 0 C2.475 0.99 2.475 0.99 5 2 C2.19195732 4.96404505 -0.18315774 7.44499019 -4 9 C-4 9.66 -4 10.32 -4 11 C-4.66 10.67 -5.32 10.34 -6 10 C-6.625 7.9375 -6.625 7.9375 -7 6 C-6.360625 5.71125 -5.72125 5.4225 -5.0625 5.125 C-2.84793921 4.17176549 -2.84793921 4.17176549 -2 2 C-1.34 2 -0.68 2 0 2 C0 1.34 0 0.68 0 0 Z " fill="#D0DCD0" transform="translate(277,288)"/>
<path d="M0 0 C1.41152344 0.12568359 1.41152344 0.12568359 2.8515625 0.25390625 C4.71941406 0.40666016 4.71941406 0.40666016 6.625 0.5625 C7.85476563 0.66691406 9.08453125 0.77132813 10.3515625 0.87890625 C13.75627462 0.99191061 16.67558398 0.69045563 20 0 C20 0.66 20 1.32 20 2 C16.96474514 4.02350324 15.80573798 4.32124018 12.3125 4.625 C11.50425781 4.69976562 10.69601562 4.77453125 9.86328125 4.8515625 C8.94095703 4.92503906 8.94095703 4.92503906 8 5 C8 4.34 8 3.68 8 3 C7.13375 3.309375 7.13375 3.309375 6.25 3.625 C3.48032433 4.08661261 2.35438733 3.42944945 0 2 C0 1.34 0 0.68 0 0 Z " fill="#C8D8C9" transform="translate(280,339)"/>
<path d="M0 0 C4.02436645 0.6191333 6.85161133 2.48128906 10 5 C10.875 7.75 10.875 7.75 11 10 C7.1936543 9.32829194 3.64793184 8.27253436 0 7 C0.639375 6.690625 1.27875 6.38125 1.9375 6.0625 C3.93610821 5.1654837 3.93610821 5.1654837 5 4 C2.525 3.01 2.525 3.01 0 2 C0 1.34 0 0.68 0 0 Z " fill="#B8CBBB" transform="translate(269,315)"/>
<path d="M0 0 C0.66 0.33 1.32 0.66 2 1 C2.41064453 2.85766602 2.41064453 2.85766602 2.6328125 5.25390625 C2.71660156 6.10791016 2.80039063 6.96191406 2.88671875 7.84179688 C2.96535156 8.73962891 3.04398438 9.63746094 3.125 10.5625 C3.21136719 11.46419922 3.29773438 12.36589844 3.38671875 13.29492188 C3.59951659 15.52929918 3.80354467 17.76413615 4 20 C3.67 19.34 3.34 18.68 3 18 C1.02111039 17.27306096 -0.97954558 16.60183749 -3 16 C-2.34 15.01 -1.68 14.02 -1 13 C-0.5396236 9.80193335 -0.5396236 9.80193335 -0.375 6.3125 C-0.30023438 5.13300781 -0.22546875 3.95351563 -0.1484375 2.73828125 C-0.09945312 1.83464844 -0.05046875 0.93101562 0 0 Z " fill="#E4F1E1" transform="translate(212,274)"/>
<path d="M0 0 C0.66 0.99 1.32 1.98 2 3 C1.01 3 0.02 3 -1 3 C-0.896875 3.9075 -0.79375 4.815 -0.6875 5.75 C-1 9 -1 9 -3.3125 11.4375 C-4.199375 11.953125 -5.08625 12.46875 -6 13 C-6.99 12.67 -7.98 12.34 -9 12 C-7.125 7.25 -7.125 7.25 -6 5 C-5.01 4.67 -4.02 4.34 -3 4 C-2.67 3.01 -2.34 2.02 -2 1 C-1.34 0.67 -0.68 0.34 0 0 Z " fill="#F3FAF1" transform="translate(312,244)"/>
<path d="M0 0 C4.41393071 2.20696535 6.64950384 4.66062248 9 9 C8.67 9.99 8.34 10.98 8 12 C7.34 11.67 6.68 11.34 6 11 C6 10.34 6 9.68 6 9 C4.35 9 2.7 9 1 9 C0 6 0 6 0.9375 3.8125 C1.4634375 2.9153125 1.4634375 2.9153125 2 2 C1.34 2 0.68 2 0 2 C0 1.34 0 0.68 0 0 Z " fill="#CFDBCD" transform="translate(341,202)"/>
<path d="M0 0 C0.99 0.66 1.98 1.32 3 2 C-2.27469741 5.59128334 -6.56751271 7.12666783 -13 6 C-13.66 5.34 -14.32 4.68 -15 4 C-13.35 4 -11.7 4 -10 4 C-9.67 3.34 -9.34 2.68 -9 2 C-7.6078125 2.3403125 -7.6078125 2.3403125 -6.1875 2.6875 C-3.03173152 3.36319983 -3.03173152 3.36319983 -1.125 1.5625 C-0.75375 1.046875 -0.3825 0.53125 0 0 Z " fill="#B9CABC" transform="translate(248,274)"/>
<path d="M0 0 C0.99 0.33 1.98 0.66 3 1 C3.6875 3.0625 3.6875 3.0625 4 5 C3.34 5 2.68 5 2 5 C2.02320313 6.20398438 2.04640625 7.40796875 2.0703125 8.6484375 C2.08906863 10.22395215 2.10726899 11.79947348 2.125 13.375 C2.14175781 14.1690625 2.15851563 14.963125 2.17578125 15.78125 C2.19335473 17.85492015 2.10335168 19.92883241 2 22 C1.34 22.66 0.68 23.32 0 24 C0 16.08 0 8.16 0 0 Z " fill="#9FB5A2" transform="translate(274,239)"/>
<path d="M0 0 C1.65 0 3.3 0 5 0 C5.66 1.65 6.32 3.3 7 5 C2.38 5 -2.24 5 -7 5 C-6.67 4.34 -6.34 3.68 -6 3 C-2.9375 2.375 -2.9375 2.375 0 2 C0 1.34 0 0.68 0 0 Z " fill="#F5F9F0" transform="translate(256,314)"/>
<path d="M0 0 C5.01791571 2.36957131 6.69517696 5.1244128 9 10 C8 12 8 12 6 13 C6 12.34 6 11.68 6 11 C5.01 11 4.02 11 3 11 C3.33 9.02 3.66 7.04 4 5 C2.68 5 1.36 5 0 5 C0 3.35 0 1.7 0 0 Z " fill="#D6E3D5" transform="translate(351,267)"/>
<path d="M0 0 C0.66 0.33 1.32 0.66 2 1 C2 1.66 2 2.32 2 3 C1.01 3 0.02 3 -1 3 C-0.01 4.32 0.98 5.64 2 7 C1.67 7.66 1.34 8.32 1 9 C-2.3 7.35 -5.6 5.7 -9 4 C-6.00084818 2.50042409 -3.16379181 1.08234983 0 0 Z " fill="#CDD8CB" transform="translate(318,162)"/>
<path d="M0 0 C0.66 0.33 1.32 0.66 2 1 C1.34 1.556875 0.68 2.11375 0 2.6875 C-2.20312576 4.80435871 -2.20312576 4.80435871 -2.3125 7.4375 C-2.03598576 10.02344447 -2.03598576 10.02344447 -1.4375 12.625 C-1 15 -1 15 -2 18 C-4.978043 13.90519087 -5.70660778 11.03458041 -5 6 C-3.53308478 3.67738423 -1.93709106 1.98551834 0 0 Z " fill="#C1D2C1" transform="translate(295,303)"/>
<path d="M0 0 C0.33 0.99 0.66 1.98 1 3 C3.01508358 3.73323796 3.01508358 3.73323796 5 4 C5 3.34 5 2.68 5 2 C5.66 2.33 6.32 2.66 7 3 C6.01 4.485 6.01 4.485 5 6 C6.32 6.66 7.64 7.32 9 8 C7.52093108 8.02689216 6.04172517 8.04634621 4.5625 8.0625 C3.32693359 8.07990234 3.32693359 8.07990234 2.06640625 8.09765625 C0 8 0 8 -1 7 C-1.125 4 -1.125 4 -1 1 C-0.67 0.67 -0.34 0.34 0 0 Z " fill="#CEDBCF" transform="translate(230,339)"/>
<path d="M0 0 C2 1 2 1 3 3 C2.70351562 3.72574219 2.40703125 4.45148438 2.1015625 5.19921875 C0.81096936 8.48062046 0.58787866 11.30000217 0.375 14.8125 C0.30023438 15.97394531 0.22546875 17.13539063 0.1484375 18.33203125 C0.09945312 19.21246094 0.05046875 20.09289062 0 21 C-0.33 21 -0.66 21 -1 21 C-1.19390729 18.68802845 -1.37996367 16.3753971 -1.5625 14.0625 C-1.66691406 12.77472656 -1.77132812 11.48695313 -1.87890625 10.16015625 C-1.91886719 9.11730469 -1.95882812 8.07445312 -2 7 C-1.67 6.67 -1.34 6.34 -1 6 C-1.33 5.34 -1.66 4.68 -2 4 C-1.67 3.34 -1.34 2.68 -1 2 C-1.66 1.67 -2.32 1.34 -3 1 C-2.01 0.67 -1.02 0.34 0 0 Z " fill="#A4B7A3" transform="translate(215,265)"/>
<path d="M0 0 C0.99 0 1.98 0 3 0 C3 0.66 3 1.32 3 2 C4.98 2.66 6.96 3.32 9 4 C7 6 7 6 5.0546875 6.1953125 C3.03645833 6.13020833 1.01822917 6.06510417 -1 6 C-0.67 4.02 -0.34 2.04 0 0 Z " fill="#E6F1E5" transform="translate(266,315)"/>
<path d="M0 0 C0.33 0 0.66 0 1 0 C1.33 4.95 1.66 9.9 2 15 C2.99 14.67 3.98 14.34 5 14 C5 13.34 5 12.68 5 12 C5.66 12 6.32 12 7 12 C7 11.34 7 10.68 7 10 C7.66 10 8.32 10 9 10 C7.53563715 14.63714903 7.53563715 14.63714903 5.0625 16.3125 C3 17 3 17 0 17 C-0.77313045 11.0885256 -1.14819277 5.8685408 0 0 Z " fill="#B8C8B9" transform="translate(282,256)"/>
<path d="M0 0 C3.68754757 0.49831724 5.60490662 1.10067643 8 4 C3.56923077 6.09230769 3.56923077 6.09230769 0.6875 5.625 C0.130625 5.41875 -0.42625 5.2125 -1 5 C-0.67 3.35 -0.34 1.7 0 0 Z " fill="#F8F9F0" transform="translate(214,248)"/>
<path d="M0 0 C1.32 0.66 2.64 1.32 4 2 C3.34 2 2.68 2 2 2 C2.33 2.99 2.66 3.98 3 5 C2.01 5.33 1.02 5.66 0 6 C-1.20882096 8.00016466 -1.20882096 8.00016466 -2 10 C-2.66 10 -3.32 10 -4 10 C-3.43454163 6.04179141 -2.19097652 3.3340947 0 0 Z " fill="#F6FAF1" transform="translate(114,196)"/>
<path d="M0 0 C1.98 0.99 3.96 1.98 6 3 C6 3.66 6 4.32 6 5 C6.66 5 7.32 5 8 5 C8.1875 8.375 8.1875 8.375 8 12 C7.01 12.66 6.02 13.32 5 14 C5 13.01 5 12.02 5 11 C5.66 11 6.32 11 7 11 C6.67 10.01 6.34 9.02 6 8 C5.01 8.33 4.02 8.66 3 9 C3 7.35 3 5.7 3 4 C2.34 4 1.68 4 1 4 C0.67 2.68 0.34 1.36 0 0 Z " fill="#BECEBE" transform="translate(384,194)"/>
<path d="M0 0 C0.66 0.33 1.32 0.66 2 1 C1.01 1.33 0.02 1.66 -1 2 C-1 3.32 -1 4.64 -1 6 C-1.66 6 -2.32 6 -3 6 C-3.33 6.66 -3.66 7.32 -4 8 C-5.32 7.34 -6.64 6.68 -8 6 C-8.33 6.99 -8.66 7.98 -9 9 C-10.32 8.67 -11.64 8.34 -13 8 C-11.68 7.67 -10.36 7.34 -9 7 C-9 6.34 -9 5.68 -9 5 C-7.54735962 4.1361871 -6.0876837 3.28419546 -4.625 2.4375 C-3.81289062 1.96183594 -3.00078125 1.48617187 -2.1640625 0.99609375 C-1.44992188 0.66738281 -0.73578125 0.33867187 0 0 Z " fill="#B7CABA" transform="translate(203,142)"/>
<path d="M0 0 C0.33 0.99 0.66 1.98 1 3 C-2.63 2.67 -6.26 2.34 -10 2 C-10 2.66 -10 3.32 -10 4 C-10.99 3.67 -11.98 3.34 -13 3 C-12 1 -12 1 -9.875 -0.1875 C-6.28675666 -1.20156877 -3.62486934 -0.71075869 0 0 Z " fill="#A8BAAA" transform="translate(193,300)"/>
<path d="M0 0 C-0.50603992 2.16874252 -0.99983813 3.99967627 -2 6 C-2.66 6 -3.32 6 -4 6 C-4.33 6.99 -4.66 7.98 -5 9 C-7 7 -7 7 -7.125 4.375 C-7.08375 3.59125 -7.0425 2.8075 -7 2 C-2.25 0 -2.25 0 0 0 Z " fill="#CDD8CF" transform="translate(310,254)"/>
<path d="M0 0 C1.64936913 0.78427352 3.29441127 1.57765259 4.9375 2.375 C5.85402344 2.81585938 6.77054687 3.25671875 7.71484375 3.7109375 C10 5 10 5 11 7 C9.35 6.67 7.7 6.34 6 6 C6 5.34 6 4.68 6 4 C4.02 4.66 2.04 5.32 0 6 C-0.66 5.01 -1.32 4.02 -2 3 C-1.34 2.01 -0.68 1.02 0 0 Z " fill="#BFCDC0" transform="translate(321,157)"/>
<path d="M0 0 C1.32 0.33 2.64 0.66 4 1 C4 1.66 4 2.32 4 3 C3.34 3 2.68 3 2 3 C2 3.66 2 4.32 2 5 C-1.46153846 8 -1.46153846 8 -4 8 C-5.125 4.25 -5.125 4.25 -4 2 C-3.01 2 -2.02 2 -1 2 C-0.67 1.34 -0.34 0.68 0 0 Z " fill="#C6D5C5" transform="translate(267,298)"/>
<path d="M0 0 C1.32 0 2.64 0 4 0 C4 0.66 4 1.32 4 2 C5.98 2 7.96 2 10 2 C10.33 2.99 10.66 3.98 11 5 C12.65 5.33 14.3 5.66 16 6 C15.01 6.495 15.01 6.495 14 7 C13.67 7.66 13.34 8.32 13 9 C12.154375 8.236875 11.30875 7.47375 10.4375 6.6875 C7.17996332 3.9508582 3.96276872 2.50585211 0 1 C0 0.67 0 0.34 0 0 Z " fill="#B8C6BA" transform="translate(334,272)"/>
<path d="M0 0 C0.66 0.33 1.32 0.66 2 1 C1.67 3.31 1.34 5.62 1 8 C-1.62187494 6.95125002 -2.79371361 6.35068687 -4.25 3.875 C-4.4975 3.25625 -4.745 2.6375 -5 2 C-4.01 1.67 -3.02 1.34 -2 1 C-1.34 0.67 -0.68 0.34 0 0 Z " fill="#C9D4C8" transform="translate(333,264)"/>
<path d="M0 0 C0 2.83967231 -0.40267181 5.23735711 -1 8 C-6.625 10 -6.625 10 -10 10 C-6.7 6.7 -3.4 3.4 0 0 Z " fill="#B9C9B8" transform="translate(301,254)"/>
<path d="M0 0 C2.97 0.495 2.97 0.495 6 1 C4.68 3.64 3.36 6.28 2 9 C0.4375 7.3125 0.4375 7.3125 -1 5 C-0.6875 2.25 -0.6875 2.25 0 0 Z " fill="#C4D3C3" transform="translate(339,250)"/>
<path d="M0 0 C-3.64823039 2.33486745 -6.74410043 2.30399283 -11 2 C-13.4375 1 -13.4375 1 -15 0 C-8.95389734 -2.01536755 -6.14791699 -1.74190981 0 0 Z " fill="#BBCCB9" transform="translate(302,229)"/>
<path d="M0 0 C1.47742793 3.84131261 0.3587688 6.2434039 -1 10 C-1 10.99 -1 11.98 -1 13 C-3 14.6875 -3 14.6875 -5 16 C-3.72093023 3.72093023 -3.72093023 3.72093023 0 0 Z " fill="#C1D7C2" transform="translate(152,211)"/>
<path d="M0 0 C3.3 0.33 6.6 0.66 10 1 C10.33 2.32 10.66 3.64 11 5 C10.01 5.495 10.01 5.495 9 6 C6.8359375 5.00390625 6.8359375 5.00390625 4.375 3.5625 C3.55773437 3.08941406 2.74046875 2.61632812 1.8984375 2.12890625 C1.27195312 1.75636719 0.64546875 1.38382813 0 1 C0 0.67 0 0.34 0 0 Z " fill="#B8CDB6" transform="translate(276,145)"/>
<path d="M0 0 C0.66 0.33 1.32 0.66 2 1 C1.071875 1.763125 0.14375 2.52625 -0.8125 3.3125 C-2.56017064 4.75658466 -4.13997568 6.15034425 -5.6875 7.8125 C-7 9 -7 9 -10 9 C-9.34 7.68 -8.68 6.36 -8 5 C-7.34 5 -6.68 5 -6 5 C-6 4.34 -6 3.68 -6 3 C-4.03533587 1.93224776 -2.03144641 0.93446535 0 0 Z " fill="#A8BFA9" transform="translate(164,200)"/>
<path d="M0 0 C-0.33 0.66 -0.66 1.32 -1 2 C-1.99 2.33 -2.98 2.66 -4 3 C-4.33 3.66 -4.66 4.32 -5 5 C-6.97888961 5.72693904 -8.97954558 6.39816251 -11 7 C-11.66 6.34 -12.32 5.68 -13 5 C-4.738041 -0.74031891 -4.738041 -0.74031891 0 0 Z " fill="#CADBCB" transform="translate(218,136)"/>
<path d="M0 0 C0 0.66 0 1.32 0 2 C-0.99 2.495 -0.99 2.495 -2 3 C-2.2475 3.598125 -2.495 4.19625 -2.75 4.8125 C-4.51231152 7.89654517 -7.01059522 9.18036231 -10 11 C-10.66 10.67 -11.32 10.34 -12 10 C-10.38113585 8.32737283 -8.7547271 6.66204463 -7.125 5 C-6.22007812 4.071875 -5.31515625 3.14375 -4.3828125 2.1875 C-2 0 -2 0 0 0 Z " fill="#9CB09F" transform="translate(308,207)"/>
<path d="M0 0 C0.99 0.33 1.98 0.66 3 1 C2.67 3.64 2.34 6.28 2 9 C1.34 9 0.68 9 0 9 C-0.33 7.35 -0.66 5.7 -1 4 C-1.99 4.33 -2.98 4.66 -4 5 C-4 4.34 -4 3.68 -4 3 C-2.68 2.34 -1.36 1.68 0 1 C0 0.67 0 0.34 0 0 Z " fill="#F7FAF1" transform="translate(314,329)"/>
<path d="M0 0 C0.33 0.66 0.66 1.32 1 2 C2.65 2 4.3 2 6 2 C2.80009492 4.74277578 -0.00499382 6.6302836 -4 8 C-4 7.01 -4 6.02 -4 5 C-3.34 4.67 -2.68 4.34 -2 4 C-2.33 3.34 -2.66 2.68 -3 2 C-2.01 1.34 -1.02 0.68 0 0 Z " fill="#C2D4C3" transform="translate(208,149)"/>
<path d="M0 0 C0.66 0.33 1.32 0.66 2 1 C1.505 1.70125 1.01 2.4025 0.5 3.125 C-1.1936681 6.37119719 -1.25162315 8.39340156 -1 12 C-3.19653565 10.26107595 -3.93493775 9.36248966 -4.4375 6.5625 C-3.87447493 3.26478176 -2.51068992 2.11839462 0 0 Z " fill="#B8CABA" transform="translate(112,196)"/>
<path d="M0 0 C1.9375 0.75 1.9375 0.75 4 2 C4.75 4.125 4.75 4.125 5 6 C2.625 7.0625 2.625 7.0625 0 8 C-0.66 7.67 -1.32 7.34 -2 7 C-1.34 4.69 -0.68 2.38 0 0 Z " fill="#F4F9EF" transform="translate(353,182)"/>
<path d="M0 0 C0.66 0.33 1.32 0.66 2 1 C1 3.5 1 3.5 -1 6 C-3.79374292 6.46837899 -6.14221036 6.23424505 -9 6 C-6.12050853 3.76039553 -3.23257974 1.70135776 0 0 Z " fill="#BACDBB" transform="translate(223,319)"/>
<path d="M0 0 C-2.62198774 2.15377564 -4.64404172 3.40072174 -8 4 C-8 3.01 -8 2.02 -8 1 C-8.99 1.33 -9.98 1.66 -11 2 C-11.33 1.34 -11.66 0.68 -12 0 C-7.91556885 -1.53166168 -4.20544343 -0.63081652 0 0 Z " fill="#F9FBF5" transform="translate(335,299)"/>
<path d="M0 0 C1.64936913 0.78427352 3.29441127 1.57765259 4.9375 2.375 C5.85402344 2.81585938 6.77054687 3.25671875 7.71484375 3.7109375 C10 5 10 5 11 7 C7.7 6.34 4.4 5.68 1 5 C0.67 3.35 0.34 1.7 0 0 Z " fill="#C4D9CA" transform="translate(282,134)"/>
<path d="M0 0 C0.33 0.66 0.66 1.32 1 2 C-1.64 2.99 -4.28 3.98 -7 5 C-7.66 3.68 -8.32 2.36 -9 1 C-6.04335481 -0.4783226 -3.25770263 -0.06032783 0 0 Z " fill="#F6FCF3" transform="translate(312,301)"/>
<path d="M0 0 C0.66 0.99 1.32 1.98 2 3 C0.02 5.97 0.02 5.97 -2 9 C-2.66 8.67 -3.32 8.34 -4 8 C-3.67 6.02 -3.34 4.04 -3 2 C-2.01 2 -1.02 2 0 2 C0 1.34 0 0.68 0 0 Z " fill="#B5C7B6" transform="translate(314,245)"/>
<path d="M0 0 C1.32 0.66 2.64 1.32 4 2 C4 2.66 4 3.32 4 4 C6.97 4.495 6.97 4.495 10 5 C10 5.33 10 5.66 10 6 C4.28341664 6.45732667 1.51350747 5.52273754 -3 2 C-2.01 1.34 -1.02 0.68 0 0 Z " fill="#9CAB9D" transform="translate(379,203)"/>
<path d="M0 0 C0.33 0.99 0.66 1.98 1 3 C-3.30769231 6.93846154 -3.30769231 6.93846154 -6.8125 7.25 C-7.534375 7.1675 -8.25625 7.085 -9 7 C-6.3765992 4.08511023 -3.28183606 2.11496102 0 0 Z " fill="#BEC8BD" transform="translate(162,166)"/>
<path d="M0 0 C-0.99 0.495 -0.99 0.495 -2 1 C-2.33 1.66 -2.66 2.32 -3 3 C-6.78706732 3 -10.26513121 2.5745952 -14 2 C-14 1.67 -14 1.34 -14 1 C-9.27616037 0.34843591 -4.78025483 -0.11950637 0 0 Z " fill="#BED0C0" transform="translate(319,299)"/>
<path d="M0 0 C-1.45733042 4.61487965 -1.45733042 4.61487965 -3.9375 6.375 C-6 7 -6 7 -9 6 C-7.8803014 4.99406757 -6.7540588 3.9954151 -5.625 3 C-4.68527344 2.1646875 -4.68527344 2.1646875 -3.7265625 1.3125 C-2 0 -2 0 0 0 Z " fill="#B8CBB9" transform="translate(263,291)"/>
<path d="M0 0 C1 2 1 2 0.25 5.5625 C-0.1625 6.696875 -0.575 7.83125 -1 9 C-1.99 9.33 -2.98 9.66 -4 10 C-4.66 9.67 -5.32 9.34 -6 9 C-6 8.34 -6 7.68 -6 7 C-5.38125 6.54625 -4.7625 6.0925 -4.125 5.625 C-1.86557722 3.89720611 -1.07249699 2.59186772 0 0 Z " fill="#B3C8BB" transform="translate(269,282)"/>
<path d="M0 0 C2.0625 0.4375 2.0625 0.4375 4 1 C3.67 2.32 3.34 3.64 3 5 C4.65 5 6.3 5 8 5 C7.01 5.66 6.02 6.32 5 7 C2.37812506 5.95125002 1.20628639 5.35068687 -0.25 2.875 C-0.4975 2.25625 -0.745 1.6375 -1 1 C-0.67 0.67 -0.34 0.34 0 0 Z " fill="#B5C6B7" transform="translate(223,268)"/>
<path d="M0 0 C0.66 0.99 1.32 1.98 2 3 C0.68 3.33 -0.64 3.66 -2 4 C-1.79375 4.61875 -1.5875 5.2375 -1.375 5.875 C-1.25125 6.57625 -1.1275 7.2775 -1 8 C-1.66 8.66 -2.32 9.32 -3 10 C-3.66 7.36 -4.32 4.72 -5 2 C-3.35 1.34 -1.7 0.68 0 0 Z " fill="#F8FBF4" transform="translate(254,228)"/>
<path d="M0 0 C-3.12432397 2.52349243 -6.38060496 4.27256146 -10 6 C-9.6875 4.125 -9.6875 4.125 -9 2 C-5.5647952 -0.29013653 -4.014669 -0.17842973 0 0 Z " fill="#B2C2B3" transform="translate(145,192)"/>
<path d="M0 0 C1.32 0.33 2.64 0.66 4 1 C4.33 3.31 4.66 5.62 5 8 C2.20127563 5.47211993 0.54226981 3.79588866 0 0 Z " fill="#BBC8BA" transform="translate(152,332)"/>
<path d="M0 0 C1.32 0 2.64 0 4 0 C4 0.66 4 1.32 4 2 C4.99 2.33 5.98 2.66 7 3 C6.34 4.32 5.68 5.64 5 7 C4.34 6.67 3.68 6.34 3 6 C3.33 5.34 3.66 4.68 4 4 C3.34 4 2.68 4 2 4 C2 3.01 2 2.02 2 1 C1.34 0.67 0.68 0.34 0 0 Z " fill="#D2E0D0" transform="translate(348,294)"/>
<path d="M0 0 C0.33 0 0.66 0 1 0 C1.21755666 5.4389165 1.10428384 9.87080814 -1 15 C-2.125 13.25 -2.125 13.25 -3 11 C-2.1875 9.1875 -2.1875 9.1875 -1 7 C-0.61250787 4.67504723 -0.27017161 2.34148732 0 0 Z " fill="#A1B6A6" transform="translate(360,279)"/>
<path d="M0 0 C0.66 1.32 1.32 2.64 2 4 C-0.0072908 7.0109362 -0.83884224 7.63016497 -4 9 C-2.80100302 5.9168649 -1.52299523 2.93720508 0 0 Z " fill="#A8BFA7" transform="translate(335,241)"/>
<path d="M0 0 C0.66 0.66 1.32 1.32 2 2 C0.515 4.475 0.515 4.475 -1 7 C-1.99 6.67 -2.98 6.34 -4 6 C-4 5.01 -4 4.02 -4 3 C-2 1.3125 -2 1.3125 0 0 Z " fill="#F8FBF4" transform="translate(340,238)"/>
<path d="M0 0 C-0.33 0.99 -0.66 1.98 -1 3 C-1.99 2.67 -2.98 2.34 -4 2 C-4 2.66 -4 3.32 -4 4 C-5.32 3.67 -6.64 3.34 -8 3 C-8 2.01 -8 1.02 -8 0 C-2.25 -1.125 -2.25 -1.125 0 0 Z " fill="#F3F7EF" transform="translate(239,339)"/>
<path d="M0 0 C2.79872437 2.52788007 4.45773019 4.20411134 5 8 C3.02 7.01 1.04 6.02 -1 5 C-0.67 3.35 -0.34 1.7 0 0 Z " fill="#B3BFB1" transform="translate(217,243)"/>
<path d="M0 0 C0.66 0.33 1.32 0.66 2 1 C0.02 3.97 0.02 3.97 -2 7 C-3.32 5.68 -4.64 4.36 -6 3 C-4.03533587 1.93224776 -2.03144641 0.93446535 0 0 Z " fill="#B9C4B7" transform="translate(317,200)"/>
<path d="M0 0 C0 0.66 0 1.32 0 2 C-4.1795645 4.78637633 -6.14668677 3.79562512 -11 3 C-11 2.67 -11 2.34 -11 2 C-9.5422647 1.664061 -8.08378894 1.33133376 -6.625 1 C-5.40683594 0.7215625 -5.40683594 0.7215625 -4.1640625 0.4375 C-2 0 -2 0 0 0 Z " fill="#BBD8BF" transform="translate(300,339)"/>
<path d="M0 0 C0.33 0.66 0.66 1.32 1 2 C0.01 3.485 0.01 3.485 -1 5 C-0.34 5.66 0.32 6.32 1 7 C-0.875 7.625 -0.875 7.625 -3 8 C-3.66 7.34 -4.32 6.68 -5 6 C-3.63016497 2.83884224 -3.0109362 2.0072908 0 0 Z " fill="#F8FCF4" transform="translate(207,335)"/>
<path d="M0 0 C-0.33 0.99 -0.66 1.98 -1 3 C-2.98 3 -4.96 3 -7 3 C-6.67 2.01 -6.34 1.02 -6 0 C-3 -1 -3 -1 0 0 Z " fill="#F6FBF2" transform="translate(239,314)"/>
<path d="M0 0 C2.51699845 2.51699845 3.10964078 4.57554146 4 8 C3.625 10.375 3.625 10.375 3 12 C2.67 11.01 2.34 10.02 2 9 C1.34 8.34 0.68 7.68 0 7 C-0.125 3.375 -0.125 3.375 0 0 Z " fill="#B1C4B3" transform="translate(278,244)"/>
<path d="M0 0 C4.19360449 0.67097672 7.40334352 2.8558394 11 5 C9.68 5.33 8.36 5.66 7 6 C7 5.34 7 4.68 7 4 C5.35 4 3.7 4 2 4 C2 3.01 2 2.02 2 1 C1.34 0.67 0.68 0.34 0 0 Z " fill="#A0B3A2" transform="translate(335,166)"/>
<path d="M0 0 C3.1875 -0.3125 3.1875 -0.3125 6 0 C3.47043472 3.0916909 0.77545388 3.90931332 -3 5 C-1.875 2.5 -1.875 2.5 0 0 Z " fill="#A6BBA9" transform="translate(216,335)"/>
<path d="M0 0 C2.31 0.66 4.62 1.32 7 2 C7 3.65 7 5.3 7 7 C5.82780457 6.21654285 4.66236332 5.42297164 3.5 4.625 C2.8503125 4.18414062 2.200625 3.74328125 1.53125 3.2890625 C1.0259375 2.86367188 0.520625 2.43828125 0 2 C0 1.34 0 0.68 0 0 Z " fill="#B3D0B5" transform="translate(172,314)"/>
<path d="M0 0 C2 2 2 2 2 5 C2.66 5 3.32 5 4 5 C3.67 6.32 3.34 7.64 3 9 C3 8.34 3 7.68 3 7 C1.02 6.34 -0.96 5.68 -3 5 C-2.01 3.35 -1.02 1.7 0 0 Z " fill="#D3DDD1" transform="translate(212,285)"/>
<path d="M0 0 C3.26954202 0.56371414 4.82575883 1.49962266 7 4 C6.34 4 5.68 4 5 4 C4.67 4.99 4.34 5.98 4 7 C2.02 3.535 2.02 3.535 0 0 Z " fill="#C0D3C0" transform="translate(201,242)"/>
<path d="M0 0 C-0.75 5.75 -0.75 5.75 -3 8 C-3.66 6.35 -4.32 4.7 -5 3 C-2.25 0 -2.25 0 0 0 Z " fill="#ABC6B2" transform="translate(322,232)"/>
<path d="M0 0 C-2.97 1.65 -5.94 3.3 -9 5 C-8.67 3.68 -8.34 2.36 -8 1 C-2.71910112 -1.35955056 -2.71910112 -1.35955056 0 0 Z " fill="#ACC0AA" transform="translate(134,199)"/>
<path d="M0 0 C0.99 0.99 1.98 1.98 3 3 C2.01 3.495 2.01 3.495 1 4 C1 4.66 1 5.32 1 6 C0.01 5.67 -0.98 5.34 -2 5 C-2.6875 2.9375 -2.6875 2.9375 -3 1 C-2.01 0.67 -1.02 0.34 0 0 Z " fill="#F4FAF2" transform="translate(370,194)"/>
<path d="M0 0 C3.465 1.485 3.465 1.485 7 3 C6.01 3.495 6.01 3.495 5 4 C5 4.66 5 5.32 5 6 C4.01 5.67 3.02 5.34 2 5 C0.8125 2.4375 0.8125 2.4375 0 0 Z " fill="#B9CBBB" transform="translate(361,181)"/>
<path d="M0 0 C1.52299523 2.93720508 2.80100302 5.9168649 4 9 C2.35 8.01 0.7 7.02 -1 6 C-0.67 4.02 -0.34 2.04 0 0 Z " fill="#ABBAAA" transform="translate(161,321)"/>
<path d="M0 0 C0.99 0.33 1.98 0.66 3 1 C0.31158141 3.25245881 -1.64641875 4.88213958 -5 6 C-4.67 4.68 -4.34 3.36 -4 2 C-3.01 2.33 -2.02 2.66 -1 3 C-0.67 2.01 -0.34 1.02 0 0 Z " fill="#BDCDBD" transform="translate(240,321)"/>
<path d="M0 0 C1.98 0 3.96 0 6 0 C5.67 1.32 5.34 2.64 5 4 C2.03 3.505 2.03 3.505 -1 3 C-0.67 2.01 -0.34 1.02 0 0 Z " fill="#F6F8EF" transform="translate(346,298)"/>
<path d="M0 0 C3.57104439 1.87949705 5.54744301 3.17053157 7 7 C6.34 7 5.68 7 5 7 C4.67 6.34 4.34 5.68 4 5 C2.68 5 1.36 5 0 5 C0 3.35 0 1.7 0 0 Z " fill="#B2C3B4" transform="translate(351,267)"/>
<path d="M0 0 C0.66 0.33 1.32 0.66 2 1 C2.625 4.0625 2.625 4.0625 3 7 C1.02 5.68 -0.96 4.36 -3 3 C-2.01 2.01 -1.02 1.02 0 0 Z " fill="#CBD9CA" transform="translate(276,209)"/>
<path d="M0 0 C2.3125 0.1875 2.3125 0.1875 5 1 C6.8125 3.5625 6.8125 3.5625 8 6 C5.0280615 4.87548273 2.66559313 3.77706209 0 2 C0 1.34 0 0.68 0 0 Z " fill="#BECDBE" transform="translate(339,181)"/>
<path d="M0 0 C0.33 0.66 0.66 1.32 1 2 C0.34 2 -0.32 2 -1 2 C-1.33 3.32 -1.66 4.64 -2 6 C-3.65 6 -5.3 6 -7 6 C-6.34 5.67 -5.68 5.34 -5 5 C-5 4.34 -5 3.68 -5 3 C-2.5 1.375 -2.5 1.375 0 0 Z " fill="#AAB8AB" transform="translate(240,308)"/>
<path d="M0 0 C1.2065625 0.0309375 1.2065625 0.0309375 2.4375 0.0625 C2.4375 1.0525 2.4375 2.0425 2.4375 3.0625 C0.4575 3.3925 -1.5225 3.7225 -3.5625 4.0625 C-3.5625 0.08689024 -3.5625 0.08689024 0 0 Z " fill="#F9FAF4" transform="translate(176.5625,300.9375)"/>
<path d="M0 0 C0.928125 0.20625 1.85625 0.4125 2.8125 0.625 C0.4351839 3.0023161 -0.89035207 3.29528521 -4.1875 3.625 C-4.8475 2.965 -5.5075 2.305 -6.1875 1.625 C-3.1875 -0.375 -3.1875 -0.375 0 0 Z " fill="#BFCFC1" transform="translate(176.1875,299.375)"/>
<path d="M0 0 C0.33 0 0.66 0 1 0 C1.33 2.64 1.66 5.28 2 8 C0.35 8.66 -1.3 9.32 -3 10 C-2.01 6.7 -1.02 3.4 0 0 Z " fill="#B8CCBC" transform="translate(348,281)"/>
<path d="M0 0 C-1.0975223 2.99324263 -1.67682892 3.84610901 -4.625 5.25 C-5.40875 5.4975 -6.1925 5.745 -7 6 C-3.61538462 0 -3.61538462 0 0 0 Z " fill="#F6FAF1" transform="translate(175,161)"/>
<path d="M0 0 C-5.2734375 3.22265625 -5.2734375 3.22265625 -7 4 C-7.66 3.67 -8.32 3.34 -9 3 C-9 2.34 -9 1.68 -9 1 C-3.375 -1.125 -3.375 -1.125 0 0 Z " fill="#94AD95" transform="translate(194,164)"/>
<path d="M0 0 C2.625 0.9375 2.625 0.9375 5 2 C4.34 2.66 3.68 3.32 3 4 C1.68 4 0.36 4 -1 4 C-1.33 3.01 -1.66 2.02 -2 1 C-1.34 0.67 -0.68 0.34 0 0 Z " fill="#FAFDF5" transform="translate(270,317)"/>
<path d="M0 0 C1.65 0.33 3.3 0.66 5 1 C3.35 2.65 1.7 4.3 0 6 C-1.125 2.25 -1.125 2.25 0 0 Z " fill="#ABC0AC" transform="translate(258,306)"/>
<path d="M0 0 C1.1446875 0.556875 1.1446875 0.556875 2.3125 1.125 C3.6428125 1.558125 3.6428125 1.558125 5 2 C5.99 1.34 6.98 0.68 8 0 C7.34 1.32 6.68 2.64 6 4 C4.68 4 3.36 4 2 4 C2 3.34 2 2.68 2 2 C1.34 2 0.68 2 0 2 C0 1.34 0 0.68 0 0 Z " fill="#8A9D89" transform="translate(235,265)"/>
<path d="M0 0 C0.99 0.33 1.98 0.66 3 1 C1.37660195 2.70884005 -0.29319053 4.37446717 -2 6 C-2.66 6 -3.32 6 -4 6 C-3.67 4.68 -3.34 3.36 -3 2 C-2.01 2 -1.02 2 0 2 C0 1.34 0 0.68 0 0 Z " fill="#D2DFD0" transform="translate(340,235)"/>
<path d="M0 0 C1.32 0 2.64 0 4 0 C4.33 1.98 4.66 3.96 5 6 C4.34 6 3.68 6 3 6 C2.01 4.02 1.02 2.04 0 0 Z " fill="#B7C7B7" transform="translate(189,224)"/>
<path d="M0 0 C2.31 0 4.62 0 7 0 C7 1.32 7 2.64 7 4 C4.08482708 2.92598892 2.22189824 2.22189824 0 0 Z " fill="#AABBAB" transform="translate(175,211)"/>
</svg>
